<svg width="28" height="28" viewBox="0 0 28 28" fill="none" xmlns="http://www.w3.org/2000/svg">
<path d="M14.0007 2.33331L14.327 2.3378C20.6163 2.51084 25.6673 7.66913 25.6673 14C25.6673 20.4283 20.4407 25.6666 14.0007 25.6666C7.57232 25.6666 2.33398 20.4283 2.33398 14C2.33398 7.55998 7.57232 2.33331 14.0007 2.33331ZM16.3107 9.33331C15.9607 8.98331 15.4123 8.98331 15.074 9.33331L11.0023 13.3816C10.839 13.545 10.7457 13.7666 10.7457 14C10.7457 14.2333 10.839 14.455 11.0023 14.6183L15.074 18.6666C15.2373 18.8416 15.459 18.9233 15.6807 18.9233C15.914 18.9233 16.1357 18.8416 16.3107 18.6666C16.649 18.3166 16.649 17.7683 16.299 17.43L12.8573 14L16.299 10.57C16.649 10.2316 16.649 9.67165 16.3107 9.33331Z" fill="#808080"/>
</svg>
