<svg width="12" height="10" viewBox="0 0 12 10" fill="none" xmlns="http://www.w3.org/2000/svg">
<path d="M4.869 9.63072C4.811 9.57422 4.563 9.36087 4.359 9.16214C3.076 7.99702 0.976 4.95756 0.335 3.36672C0.232 3.12512 0.014 2.51431 0 2.18796C0 1.87524 0.072 1.57714 0.218 1.29268C0.422 0.938078 0.743 0.653616 1.122 0.497747C1.385 0.397406 2.172 0.241537 2.186 0.241537C3.047 0.0856672 4.446 -6.10352e-05 5.992 -6.10352e-05C7.465 -6.10352e-05 8.807 0.0856672 9.681 0.213285C9.695 0.227898 10.673 0.383767 11.008 0.55425C11.62 0.866963 12 1.47778 12 2.13145V2.18796C11.985 2.61367 11.605 3.50895 11.591 3.50895C10.949 5.01406 8.952 7.98338 7.625 9.17675C7.625 9.17675 7.284 9.51285 7.071 9.65897C6.765 9.88693 6.386 9.99994 6.007 9.99994C5.584 9.99994 5.19 9.87232 4.869 9.63072Z" fill="#121212"/>
</svg>
