<svg width="24" height="24" viewBox="0 0 24 24" fill="none" xmlns="http://www.w3.org/2000/svg">
<path d="M10.869 16.6307C10.811 16.5742 10.563 16.3609 10.359 16.1621C9.076 14.997 6.976 11.9576 6.335 10.3667C6.232 10.1251 6.014 9.51431 6 9.18796C6 8.87524 6.072 8.57714 6.218 8.29268C6.422 7.93808 6.743 7.65362 7.122 7.49775C7.385 7.39741 8.172 7.24154 8.186 7.24154C9.047 7.08567 10.446 6.99994 11.992 6.99994C13.465 6.99994 14.807 7.08567 15.681 7.21329C15.695 7.2279 16.673 7.38377 17.008 7.55425C17.62 7.86696 18 8.47778 18 9.13145V9.18796C17.985 9.61367 17.605 10.5089 17.591 10.5089C16.949 12.0141 14.952 14.9834 13.625 16.1768C13.625 16.1768 13.284 16.5128 13.071 16.659C12.765 16.8869 12.386 16.9999 12.007 16.9999C11.584 16.9999 11.19 16.8723 10.869 16.6307Z" fill="#121212"/>
</svg>
