<svg width="60" height="60" viewBox="0 0 60 60" fill="none" xmlns="http://www.w3.org/2000/svg">
<g clip-path="url(#clip0_178_1121)">
<path d="M25.9168 27.3484C26.271 27.3484 26.6193 27.3762 26.9589 27.4293L32.2968 22.0915C30.3934 21.0747 28.2213 20.4972 25.917 20.4972C18.4264 20.4972 12.332 26.5914 12.332 34.0821C12.332 41.5729 18.4264 47.6671 25.917 47.6671C33.4076 47.6671 39.5018 41.5729 39.5018 34.0821C39.5018 31.7777 38.9244 29.6058 37.9074 27.7024L32.5698 33.0403C32.6227 33.38 32.6506 33.7279 32.6506 34.0823C32.6506 37.7953 29.63 40.816 25.9171 40.816C22.2041 40.816 19.1834 37.7953 19.1834 34.0823C19.1834 30.3693 22.2038 27.3484 25.9168 27.3484Z" fill="#D6183E"/>
<path d="M41.9042 23.7069C43.8502 26.695 44.9827 30.2593 44.9827 34.0832C44.9827 44.5963 36.4301 53.1492 25.9172 53.1492C15.4042 53.1492 6.85119 44.5963 6.85119 34.0834C6.85119 23.5704 15.4041 15.0174 25.917 15.0174C29.7414 15.0174 33.3053 16.1501 36.2936 18.0962L41.2139 13.1759C36.9235 10.0283 31.6339 8.1662 25.9172 8.1662C11.6263 8.1662 0 19.7926 0 34.0834C0 48.3741 11.6263 60.0007 25.9172 60.0007C40.2079 60.0007 51.8339 48.3741 51.8339 34.0834C51.8339 28.3664 49.9722 23.0769 46.8246 18.7868L41.9042 23.7069Z" fill="#D6183E"/>
<path d="M59.9332 8.17149C59.7718 7.66091 59.339 7.2832 58.8115 7.19145L53.6972 6.30316L52.8091 1.18872C52.7172 0.661262 52.3393 0.22859 51.829 0.06715C51.3188 -0.0947232 50.7611 0.0414696 50.3824 0.420184L46.4276 4.37482C46.1589 4.64375 46.0078 5.00861 46.0075 5.38891L46.0078 11.2891L24.6411 32.6552C23.8944 33.4021 23.8944 34.6124 24.6411 35.3593C25.3882 36.1059 26.5986 36.1062 27.3454 35.3593L48.7113 13.993H54.6115C54.9916 13.993 55.3565 13.842 55.6253 13.573L59.5801 9.6181C59.9589 9.23968 60.095 8.68178 59.9332 8.17149Z" fill="#2851E7"/>
</g>
<defs>
<clipPath id="clip0_178_1121">
<rect width="60" height="60" fill="white"/>
</clipPath>
</defs>
</svg>
