<svg width="24" height="24" viewBox="0 0 24 24" fill="none" xmlns="http://www.w3.org/2000/svg">
<path d="M12.0007 0.333313L12.327 0.337798C18.6163 0.510837 23.6673 5.66913 23.6673 12C23.6673 18.4283 18.4407 23.6666 12.0007 23.6666C5.57232 23.6666 0.333984 18.4283 0.333984 12C0.333984 5.55998 5.57232 0.333313 12.0007 0.333313ZM14.3107 7.33331C13.9607 6.98331 13.4123 6.98331 13.074 7.33331L9.00232 11.3816C8.83898 11.545 8.74565 11.7666 8.74565 12C8.74565 12.2333 8.83898 12.455 9.00232 12.6183L13.074 16.6666C13.2373 16.8416 13.459 16.9233 13.6807 16.9233C13.914 16.9233 14.1357 16.8416 14.3107 16.6666C14.649 16.3166 14.649 15.7683 14.299 15.43L10.8573 12L14.299 8.56998C14.649 8.23165 14.649 7.67165 14.3107 7.33331Z" fill="#808080"/>
</svg>
