<svg width="60" height="36" viewBox="0 0 60 36" fill="none" xmlns="http://www.w3.org/2000/svg">
<path d="M3.2361 15.0399V21.8908L33.0596 35.9998V28.2846L3.2361 15.0399Z" fill="#E56422"/>
<path d="M60 19.673V26.2403L33.058 35.9999V28.2847L60 19.673Z" fill="#E77422"/>
<path d="M3.23414 14.0622V20.9125L33.0576 35.0215V27.3062L3.23414 14.0622Z" fill="#F3EFCF"/>
<path d="M60 18.6943V25.2627L33.058 35.0218V27.3065L60 18.6943Z" fill="#FEFAD8"/>
<path d="M58.953 19.0285L60 18.6943V25.2627L58.953 25.6413V19.0285Z" fill="#E24E22"/>
<path d="M60 18.6945L29.4344 6.34116L3.23455 14.062L33.058 28.0081L60 18.6945Z" fill="#E77422"/>
<g style="mix-blend-mode:multiply" opacity="0.3">
<path d="M29.4337 6.34162L31.3239 7.10546C29.1196 7.72326 26.9392 8.43093 24.7722 9.15601C21.5129 10.2445 18.261 11.3689 14.9258 12.245C14.169 12.4439 13.3999 12.6056 12.6468 12.8134C12.1367 12.9527 11.5544 13.115 11.1534 13.4531C10.2961 14.1759 10.6372 14.8224 11.4779 15.4043C14.0214 17.1616 16.5888 18.9617 19.4789 20.2192C22.2777 21.4368 24.9896 22.8072 27.7266 24.1338C29.5231 25.0044 31.4874 25.8188 33.552 25.8822C35.7508 25.9524 37.6545 24.9965 39.6751 24.3568C41.4446 23.7952 43.2956 23.4908 45.0523 22.8876C49.0096 21.529 52.64 19.4981 56.301 17.5907L56.7253 17.37L59.998 18.6921L33.0567 28.0058L3.23322 14.0603L29.4337 6.34162Z" fill="#E77422"/>
</g>
<path d="M33.0043 29.4246C33.0084 29.4341 33.0154 29.4424 33.0246 29.4483C33.0337 29.4541 33.0446 29.4574 33.0557 29.4577C33.0627 29.4574 33.0696 29.4559 33.0759 29.4532L58.9531 20.2687V20.1614C58.946 20.1618 58.9389 20.1633 58.9323 20.1659L33.0368 29.3583C33.0298 29.3606 33.0234 29.3642 33.018 29.3688C33.0126 29.3734 33.0082 29.379 33.0052 29.3851C33.0022 29.3913 33.0006 29.398 33.0004 29.4048C33.0002 29.4115 33.0016 29.4183 33.0043 29.4246Z" fill="#FBE4CD"/>
<path d="M33.0043 30.8077C33.0084 30.8171 33.0155 30.8253 33.0246 30.8311C33.0338 30.8369 33.0446 30.8401 33.0557 30.8402C33.0624 30.8414 33.0693 30.8414 33.0759 30.8402L58.9531 21.6524V21.5445C58.946 21.5447 58.9389 21.546 58.9323 21.5485L33.0368 30.7414C33.0298 30.7436 33.0233 30.7472 33.0179 30.7518C33.0124 30.7563 33.008 30.7619 33.005 30.7681C33.0019 30.7743 33.0003 30.781 33.0002 30.7878C33.0001 30.7946 33.0015 30.8014 33.0043 30.8077Z" fill="#FBE4CD"/>
<path d="M33.0043 32.1924C33.0088 32.2017 33.016 32.2097 33.025 32.2155C33.0341 32.2214 33.0447 32.2248 33.0557 32.2256C33.0627 32.2252 33.0695 32.2239 33.0759 32.2217L58.9531 23.0326V22.9276C58.946 22.9278 58.9389 22.9291 58.9323 22.9316L33.0368 32.1217C33.0226 32.1275 33.0113 32.138 33.0053 32.1512C32.9993 32.1643 32.9989 32.1791 33.0043 32.1924Z" fill="#FBE4CD"/>
<path d="M33.0043 33.5742C33.0082 33.5839 33.0151 33.5924 33.0243 33.5984C33.0335 33.6044 33.0445 33.6077 33.0557 33.6079C33.0627 33.6075 33.0695 33.6062 33.0759 33.604L58.9531 24.4189V24.3116C58.946 24.312 58.9389 24.3135 58.9323 24.3161L33.0368 33.5085C33.0298 33.5107 33.0234 33.5141 33.0179 33.5187C33.0124 33.5232 33.0081 33.5287 33.005 33.5349C33.002 33.5411 33.0003 33.5477 33.0002 33.5545C33.0001 33.5613 33.0015 33.568 33.0043 33.5742Z" fill="#FBE4CD"/>
<path d="M3.23361 15.3709V15.4799L32.9805 29.4693C32.9876 29.474 32.9963 29.4764 33.005 29.476C33.0155 29.4762 33.0258 29.4735 33.0347 29.4685C33.0436 29.4634 33.0508 29.456 33.0552 29.4473C33.0558 29.4446 33.0558 29.4417 33.0552 29.4389V29.4097C33.0542 29.4028 33.0511 29.3963 33.0464 29.3909C33.0417 29.3854 33.0354 29.3813 33.0283 29.3788L3.26177 15.3771C3.25305 15.373 3.2434 15.3709 3.23361 15.3709Z" fill="#F0DEC6"/>
<path d="M3.23329 16.7868V16.8991L32.9802 30.8874C32.9881 30.8901 32.9963 30.8916 33.0047 30.8919C33.015 30.8919 33.025 30.8894 33.0339 30.8847C33.0427 30.88 33.05 30.8731 33.0549 30.8649C33.0556 30.8619 33.0556 30.8589 33.0549 30.8559C33.058 30.8518 33.0596 30.8469 33.0596 30.8419C33.0596 30.8369 33.058 30.832 33.0549 30.8278C33.0545 30.8205 33.0516 30.8135 33.0469 30.8076C33.0421 30.8017 33.0355 30.7972 33.028 30.7947L3.26146 16.793C3.25274 16.7889 3.24308 16.7868 3.23329 16.7868Z" fill="#F0DEC6"/>
<path d="M3.23358 18.1699V18.2823L32.9805 32.271C32.988 32.2749 32.9964 32.2769 33.005 32.2767C33.0155 32.2768 33.0258 32.2742 33.0347 32.2691C33.0436 32.2641 33.0507 32.2567 33.0552 32.248C33.0558 32.2454 33.0558 32.2427 33.0552 32.2402V32.211C33.054 32.2039 33.0509 32.1972 33.0462 32.1916C33.0415 32.1859 33.0353 32.1813 33.0283 32.1784L3.26175 18.1767C3.25329 18.1719 3.24349 18.1696 3.23358 18.1699Z" fill="#F0DEC6"/>
<path d="M3.23361 19.553V19.6653L32.9805 33.6536C32.988 33.6574 32.9965 33.6594 33.005 33.6592C33.0155 33.6595 33.0258 33.657 33.0347 33.652C33.0436 33.647 33.0507 33.6397 33.0552 33.6311C33.0558 33.6283 33.0558 33.6255 33.0552 33.6227V33.5912C33.0543 33.5843 33.0513 33.5777 33.0466 33.5723C33.0418 33.5668 33.0355 33.5627 33.0283 33.5603L3.26177 19.5592C3.25314 19.5549 3.24342 19.5528 3.23361 19.553Z" fill="#F0DEC6"/>
<g style="mix-blend-mode:multiply" opacity="0.6">
<path d="M37.5903 31.4318C39.2821 30.8202 40.9763 30.2187 42.6828 29.6425C45.8429 28.5753 49.0165 27.5593 52.2286 26.6293C54.0411 26.1047 56.3396 25.5835 57.5306 24.1019C58.2427 23.2145 58.2304 22.2097 58.1741 21.146C58.1434 20.5467 58.0537 19.9511 57.9059 19.3667L60 18.6966V25.2678L33.0586 35.0275V33.1319C34.5882 32.604 36.07 31.9823 37.5903 31.4318Z" fill="#E0E0E0"/>
</g>
<g style="mix-blend-mode:multiply" opacity="0.4">
<path d="M5.0058 14.8499C4.87722 15.5896 4.79762 16.3332 4.83375 17.0835C4.89069 18.2798 5.24522 19.3902 6.25368 20.2079C7.40359 21.1419 8.80821 21.6912 10.1859 22.277C11.6787 22.9122 13.1305 23.6424 14.5945 24.3309C16.0818 25.0313 17.5672 25.7457 18.9706 26.5825C20.314 27.384 21.5423 28.3236 22.9359 29.0538C24.3295 29.7839 25.7702 30.4079 27.222 31.0161C28.5966 31.5907 29.9725 32.3208 31.4181 32.7325C31.9468 32.8892 32.4966 32.9776 33.0518 32.9954V35.0173L3.2289 20.9077V14.0557L5.0058 14.8499Z" fill="#E0E0E0"/>
</g>
<g style="mix-blend-mode:soft-light" opacity="0.2">
<path d="M30.1744 8.06044C28.7557 8.20815 27.5972 9.2601 26.3212 9.76951C23.9981 10.6973 21.4662 11.0119 19.096 11.8094C18.4329 12.0284 17.7952 12.3075 17.1924 12.6423C16.1925 13.2039 14.0084 14.2149 14.9881 15.5415C15.2942 15.9565 15.7681 16.3278 16.2066 16.6204C17.1826 17.2725 18.2412 17.833 19.2503 18.4424C20.3072 19.0781 21.3671 19.7128 22.4729 20.275C24.0957 21.095 25.7629 21.8388 27.468 22.5036C28.6161 22.9529 29.7115 23.4803 30.938 23.7426C33.6768 24.3272 36.3103 23.2157 38.9144 22.5957C40.4452 22.2306 41.9925 21.9099 43.5128 21.5027C44.3842 21.2702 45.2475 21.0085 46.09 20.6979C47.0863 20.3306 48.0751 19.9459 49.0952 19.637C49.9647 19.373 51.9247 19.1152 52.1567 18.0953C52.4017 17.0209 50.3327 16.3278 49.5691 15.9846C48.1284 15.3376 46.6301 14.8052 45.1391 14.2643C44.296 13.9577 43.4547 13.642 42.6287 13.3022C40.3344 12.3609 38.105 11.264 35.8456 10.2542C35.1243 9.93238 34.4305 9.56227 33.7184 9.22584C33.1674 8.96356 32.574 8.79563 31.9856 8.61534C31.3972 8.43505 30.8835 8.00933 30.2197 8.05875L30.1744 8.06044Z" fill="white"/>
</g>
<path d="M13.672 11.7397C13.3517 11.815 13.0333 11.8953 12.7162 11.9779C12.399 12.0604 12.0794 12.1385 11.764 12.225L9.86895 12.7473C9.24072 12.9299 8.61005 13.1073 7.98489 13.2977C7.35973 13.4881 6.7315 13.674 6.10818 13.87C6.0675 13.8828 6.03174 13.9061 6.00525 13.9372C5.97876 13.9682 5.96269 14.0057 5.95899 14.0449C5.9553 14.0842 5.96413 14.1236 5.98442 14.1584C6.00471 14.1932 6.03558 14.2218 6.07328 14.2407C6.5223 14.4684 6.97438 14.6917 7.42953 14.9108C7.88141 15.1354 8.3388 15.3494 8.79619 15.5645C9.25358 15.7796 9.70852 15.9987 10.1702 16.2065C10.6319 16.4143 11.0887 16.6254 11.5589 16.8243C11.5644 16.8267 11.5703 16.8281 11.5763 16.8284C11.5824 16.8287 11.5885 16.8279 11.5942 16.8261C11.5999 16.8242 11.6051 16.8212 11.6096 16.8175C11.6141 16.8137 11.6176 16.8091 11.6201 16.8041C11.6246 16.795 11.6253 16.7848 11.6221 16.7753C11.619 16.7658 11.6122 16.7576 11.603 16.7524C11.1744 16.4957 10.7298 16.2548 10.292 16.0065C9.85425 15.7583 9.40727 15.5269 8.96519 15.2865C8.5231 15.0461 8.07979 14.808 7.63159 14.5777C7.18338 14.3474 6.73824 14.1127 6.28758 13.8858L6.25146 14.2576C6.87784 14.0694 7.50178 13.874 8.1251 13.6774C8.74843 13.4808 9.36931 13.2775 9.99141 13.0764L11.8467 12.4468C12.1528 12.3418 12.459 12.2272 12.7688 12.1183C13.0786 12.0093 13.3811 11.897 13.6873 11.7813C13.6928 11.7792 13.6971 11.7752 13.6994 11.7701C13.7017 11.7651 13.7018 11.7594 13.6995 11.7543C13.6978 11.7491 13.694 11.7448 13.6889 11.742C13.6838 11.7393 13.6777 11.7385 13.672 11.7397Z" fill="white"/>
<path d="M57.0941 18.675C57.0941 18.675 56.7188 18.7412 56.1757 18.885C55.6326 19.0288 54.915 19.2422 54.2102 19.4843C53.5054 19.7264 52.8135 19.9988 52.3029 20.2229C51.7922 20.4469 51.4616 20.6211 51.4616 20.6211C51.4516 20.6268 51.4443 20.6358 51.4414 20.6462C51.4384 20.6567 51.4399 20.6678 51.4456 20.6772C51.4503 20.6847 51.4574 20.6907 51.466 20.6943C51.4746 20.698 51.4841 20.6991 51.4934 20.6974C51.4934 20.6974 51.8675 20.6284 52.4119 20.4812C52.9562 20.3341 53.6695 20.1156 54.3712 19.869C55.0729 19.6225 55.7636 19.3444 56.2737 19.1164C56.7837 18.8884 57.1125 18.712 57.1125 18.712C57.1175 18.709 57.1211 18.7044 57.1224 18.6991C57.1238 18.6937 57.1229 18.6881 57.1199 18.6834C57.1172 18.6796 57.1132 18.6767 57.1085 18.6752C57.1039 18.6737 57.0988 18.6736 57.0941 18.675Z" fill="white"/>
<path d="M57.3428 9.97847L56.9405 16.8187L26.3333 29.4365L26.7858 21.733L57.3428 9.97847Z" fill="#6EA035"/>
<path d="M0.384954 11.8043L-0.000183105 18.3626L26.3307 29.4364L26.7832 21.733L0.384954 11.8043Z" fill="#79B03A"/>
<path d="M57.3994 9.00163L56.9977 15.8418L26.3911 28.4597L26.8436 20.7562L57.3994 9.00163Z" fill="#F3EFCF"/>
<path d="M0.445503 10.827L0.0609779 17.3852L26.3913 28.4597L26.8438 20.7557L0.445503 10.827Z" fill="#FEFAD8"/>
<path d="M1.47168 11.2128L0.445458 10.827L0.0609334 17.3853L1.08409 17.816L1.47168 11.2128Z" fill="#6A9A33"/>
<path d="M0.444763 10.8273L31.6906 0L57.3994 9.00141L26.802 21.4558L0.444763 10.8273Z" fill="#79B03A"/>
<g style="mix-blend-mode:multiply" opacity="0.3">
<path d="M31.6912 0L29.7588 0.669471C31.9264 1.39623 34.0596 2.21006 36.1819 3.04016C39.372 4.28813 42.5535 5.57091 45.8336 6.61276C46.5757 6.84865 47.3344 7.04747 48.0746 7.29234C48.5761 7.4569 49.148 7.64786 49.5295 8.00451C50.3457 8.76946 49.9642 9.39793 49.0905 9.93654C46.4478 11.5653 43.7787 13.2379 40.8182 14.3505C37.9527 15.4288 35.1642 16.6628 32.3531 17.8523C30.5083 18.6336 28.4993 19.348 26.4334 19.3126C24.234 19.2744 22.3885 18.2258 20.4065 17.4867C18.6718 16.8414 16.8429 16.4437 15.1235 15.7551C11.2519 14.2039 7.74464 11.9961 4.20186 9.91127C4.0647 9.8304 3.92755 9.74952 3.79039 9.66976L0.446602 10.8279L26.802 21.4564L57.3994 9.00142L31.6912 0Z" fill="#79B03A"/>
</g>
<path d="M26.771 22.8737C26.7663 22.8833 26.7586 22.8912 26.7489 22.8967C26.7391 22.9021 26.7278 22.9047 26.7165 22.9041C26.7096 22.9036 26.703 22.9019 26.6969 22.899L1.3965 12.4525L1.40323 12.3458C1.41003 12.3465 1.41665 12.3482 1.42282 12.3508L26.7434 22.808C26.7564 22.8135 26.7666 22.8235 26.7717 22.8358C26.7769 22.848 26.7766 22.8617 26.771 22.8737Z" fill="#FBE4CD"/>
<path d="M26.6893 24.2548C26.6848 24.2642 26.6774 24.2722 26.6678 24.2776C26.6583 24.283 26.6472 24.2856 26.636 24.2851C26.6291 24.286 26.6221 24.286 26.6152 24.2851L1.31483 13.8352L1.32158 13.728C1.32843 13.7287 1.33506 13.7306 1.34117 13.7336L26.6611 24.1868C26.6679 24.1896 26.674 24.1935 26.679 24.1984C26.6841 24.2033 26.6881 24.2091 26.6907 24.2154C26.6933 24.2217 26.6945 24.2285 26.6943 24.2352C26.6941 24.242 26.6924 24.2486 26.6893 24.2548Z" fill="#FBE4CD"/>
<path d="M26.6074 25.6368C26.6025 25.646 26.5948 25.6539 26.5853 25.6594C26.5758 25.665 26.5648 25.668 26.5535 25.6682C26.5466 25.6671 26.5398 25.6652 26.5333 25.6626L1.23293 15.2161L1.23967 15.111C1.24627 15.1117 1.2527 15.1134 1.25865 15.1161L26.5792 25.5677C26.5928 25.5735 26.6034 25.584 26.6087 25.597C26.6139 25.6099 26.6135 25.6241 26.6074 25.6368Z" fill="#FBE4CD"/>
<path d="M26.5293 27.0199C26.5249 27.0293 26.5175 27.0373 26.5079 27.0428C26.4984 27.0482 26.4873 27.0508 26.4761 27.0502C26.469 27.0499 26.4621 27.0482 26.4559 27.0451L1.15486 16.5986L1.16098 16.4914C1.16798 16.4923 1.1748 16.4942 1.18119 16.497L26.4987 26.9502C26.506 26.9526 26.5127 26.9563 26.5183 26.9613C26.5239 26.9662 26.5283 26.9721 26.5312 26.9787C26.5341 26.9853 26.5354 26.9924 26.5351 26.9995C26.5348 27.0066 26.5328 27.0135 26.5293 27.0199Z" fill="#FBE4CD"/>
<path d="M57.3203 10.3085L57.3136 10.4209L26.7909 22.9202C26.783 22.9242 26.7741 22.9259 26.7651 22.9252C26.7547 22.925 26.7447 22.9219 26.7362 22.9164C26.7277 22.9109 26.7211 22.9033 26.7174 22.8944C26.7174 22.8944 26.7174 22.8882 26.7174 22.8865V22.8573C26.7189 22.8504 26.7224 22.8441 26.7274 22.8389C26.7325 22.8337 26.7389 22.8297 26.7462 22.8275L57.2934 10.3142C57.3018 10.3104 57.311 10.3085 57.3203 10.3085Z" fill="#F0DEC6"/>
<path d="M57.2402 11.7226L57.2335 11.8321L26.7102 24.3359C26.702 24.3381 26.6936 24.3392 26.6851 24.3393C26.6749 24.3386 26.6652 24.3355 26.6569 24.3301C26.6486 24.3248 26.642 24.3175 26.6379 24.3089C26.6379 24.3089 26.6379 24.3033 26.6379 24.3011C26.6349 24.2968 26.6333 24.2918 26.6333 24.2868C26.6333 24.2817 26.6349 24.2767 26.6379 24.2724C26.639 24.2653 26.6423 24.2586 26.6472 24.2531C26.6522 24.2476 26.6587 24.2434 26.6661 24.241L57.2133 11.7271C57.2219 11.7239 57.231 11.7224 57.2402 11.7226Z" fill="#F0DEC6"/>
<path d="M57.1592 13.103L57.1524 13.2153L26.6291 25.718C26.6215 25.7215 26.6131 25.7231 26.6046 25.7225C26.5942 25.7221 26.5841 25.7189 26.5755 25.7135C26.567 25.708 26.5603 25.7004 26.5562 25.6916C26.5554 25.6888 26.5554 25.6859 26.5562 25.6832V25.654C26.5584 25.6472 26.5621 25.6409 26.567 25.6355C26.572 25.63 26.5781 25.6256 26.585 25.6225L57.1316 13.108C57.1402 13.1042 57.1497 13.1025 57.1592 13.103Z" fill="#F0DEC6"/>
<path d="M57.0771 14.4842L57.0704 14.5966L26.5465 27.0981C26.5392 27.1025 26.5305 27.1043 26.522 27.1032C26.5115 27.1029 26.5014 27.0997 26.4929 27.0941C26.4844 27.0885 26.4779 27.0807 26.4742 27.0717C26.4734 27.0691 26.4734 27.0664 26.4742 27.0639V27.0346C26.4759 27.028 26.4794 27.0217 26.4843 27.0166C26.4892 27.0114 26.4954 27.0074 26.5024 27.0049L57.0496 14.4893C57.0581 14.4854 57.0676 14.4837 57.0771 14.4842Z" fill="#F0DEC6"/>
<g style="mix-blend-mode:multiply" opacity="0.6">
<path d="M22.0746 24.6521C20.4214 23.9579 18.7682 23.2739 17.0948 22.6145C14.0008 21.394 10.8915 20.2219 7.73938 19.1323C5.95941 18.5184 3.69511 17.8849 2.59603 16.3438C1.93596 15.4221 2.0076 14.4202 2.12639 13.3603C2.19212 12.7634 2.31673 12.1731 2.49867 11.5968L0.445618 10.8279L0.0604763 17.3856L26.3895 28.46L26.501 26.5707C25.0033 25.9709 23.5601 25.2789 22.0746 24.6521Z" fill="#E0E0E0"/>
</g>
<g style="mix-blend-mode:multiply" opacity="0.4">
<path d="M55.5839 9.70057C55.6684 10.4453 55.7064 11.1923 55.625 11.9398C55.497 13.1311 55.0788 14.2229 54.0238 14.9895C52.8206 15.8646 51.386 16.3442 49.9758 16.8621C48.4451 17.4237 46.9554 18.0797 45.4528 18.6952C43.9263 19.3209 42.401 19.9617 40.9511 20.7278C39.5624 21.4619 38.2808 22.3403 36.8487 23.0025C35.4165 23.6646 33.939 24.215 32.4505 24.7503C31.0422 25.2558 29.6265 25.9174 28.1607 26.2566C27.6232 26.3875 27.0684 26.4491 26.5124 26.4397L26.3942 28.4616L56.9977 15.8432L57.3994 9.00301L55.5839 9.70057Z" fill="#E0E0E0"/>
</g>
<g style="mix-blend-mode:soft-light" opacity="0.2">
<path d="M30.8482 1.6798C32.2565 1.89716 33.3506 3.00471 34.5955 3.57646C36.861 4.61775 39.3714 5.05639 41.6884 5.96961C42.338 6.22011 42.9589 6.52923 43.5418 6.89239C44.5074 7.50458 46.6297 8.61719 45.5741 9.89605C45.2434 10.2959 44.7499 10.6419 44.2943 10.9137C43.2816 11.5175 42.1917 12.0247 41.1483 12.5824C40.056 13.1659 38.9606 13.7472 37.8229 14.2549C36.1541 14.9928 34.4459 15.653 32.7047 16.233C31.5321 16.6262 30.4067 17.0985 29.1662 17.3002C26.3979 17.7495 23.833 16.5094 21.2674 15.7613C19.7581 15.3215 18.2341 14.9244 16.7364 14.4436C15.8792 14.1679 15.033 13.8646 14.2094 13.5125C13.2365 13.0974 12.2715 12.6644 11.2704 12.3055C10.418 11.9994 8.4758 11.645 8.30252 10.6144C8.11882 9.52986 10.2276 8.93957 11.0107 8.63404C12.487 8.05948 14.0159 7.60399 15.535 7.13502C16.3953 6.87049 17.2538 6.59753 18.1006 6.29874C20.4463 5.47201 22.7376 4.4852 25.0533 3.58882C25.7917 3.30351 26.5057 2.97102 27.2362 2.66661C27.8044 2.43297 28.4044 2.29424 29.0033 2.14316C29.6021 1.99207 30.1367 1.59275 30.7992 1.67475L30.8482 1.6798Z" fill="white"/>
</g>
<path d="M47.101 6.20622C47.3986 6.33821 47.698 6.46458 47.9992 6.5887C48.3005 6.71282 48.5987 6.84256 48.9012 6.96275L50.7179 7.68277C51.3271 7.91417 51.9339 8.15119 52.5462 8.37528C53.1585 8.59937 53.7708 8.82796 54.3831 9.04925L54.3678 8.67632C53.9053 8.88076 53.4449 9.08912 52.9865 9.30143C52.5254 9.50923 52.068 9.72602 51.6137 9.94338C51.1593 10.1607 50.6989 10.3719 50.2464 10.5971C49.7939 10.8223 49.3402 11.0419 48.8932 11.2767C48.8881 11.2794 48.8836 11.283 48.88 11.2873C48.8764 11.2915 48.8737 11.2964 48.8722 11.3016C48.8707 11.3069 48.8703 11.3123 48.871 11.3177C48.8718 11.323 48.8737 11.3282 48.8767 11.3329C48.882 11.3417 48.8907 11.3484 48.9011 11.3517C48.9115 11.3551 48.9228 11.3547 48.933 11.3509C49.4112 11.1773 49.8815 10.9869 50.3554 10.8044C50.8293 10.6218 51.2947 10.4213 51.7637 10.2304C52.2327 10.0394 52.7023 9.84678 53.1665 9.64571C53.6306 9.44464 54.0978 9.24807 54.5607 9.04307C54.5992 9.02585 54.6315 8.99877 54.6536 8.96511C54.6757 8.93145 54.6868 8.89264 54.6854 8.85335C54.6841 8.81406 54.6704 8.77597 54.6459 8.74366C54.6215 8.71136 54.5875 8.68622 54.5478 8.67127C53.9355 8.44661 53.3232 8.22532 52.7109 8.0074C52.0986 7.78949 51.4777 7.57775 50.8611 7.36433L48.9997 6.74989C48.6899 6.64711 48.3758 6.55444 48.0635 6.45559C47.7513 6.35674 47.4384 6.26183 47.123 6.1714C47.1202 6.17054 47.1172 6.1702 47.1143 6.17042C47.1113 6.17063 47.1085 6.17138 47.1058 6.17264C47.1032 6.1739 47.1009 6.17563 47.099 6.17774C47.0971 6.17984 47.0957 6.18227 47.0949 6.18488C47.0936 6.18861 47.0935 6.19258 47.0946 6.19636C47.0957 6.20013 47.0979 6.20355 47.101 6.20622Z" fill="white"/>
<path d="M3.32593 10.9899C3.32593 10.9899 3.6431 11.1848 4.13968 11.4342C4.63626 11.6835 5.30857 11.9958 5.99496 12.2766C6.68135 12.5574 7.38122 12.8136 7.91576 12.9849C8.4503 13.1562 8.81952 13.246 8.81952 13.246C8.82531 13.2474 8.83133 13.2476 8.83724 13.2468C8.84315 13.2461 8.84882 13.2442 8.85395 13.2414C8.85907 13.2385 8.86353 13.2348 8.86708 13.2304C8.87063 13.226 8.87319 13.221 8.87462 13.2157C8.8769 13.2072 8.87629 13.1984 8.8729 13.1902C8.86951 13.1821 8.86349 13.1751 8.85564 13.1702C8.85564 13.1702 8.53725 12.9776 8.03883 12.7316C7.54042 12.4856 6.86566 12.1783 6.17743 11.8998C5.4892 11.6212 4.78627 11.3718 4.2499 11.2045C3.71352 11.0371 3.34368 10.9495 3.34368 10.9495C3.34083 10.9488 3.33786 10.9487 3.33495 10.9491C3.33203 10.9495 3.32924 10.9504 3.32673 10.9518C3.32421 10.9532 3.32203 10.9551 3.32032 10.9573C3.31861 10.9595 3.31739 10.962 3.31675 10.9646C3.31504 10.9692 3.315 10.9741 3.31666 10.9787C3.31832 10.9833 3.32159 10.9872 3.32593 10.9899Z" fill="white"/>
</svg>
