<svg width="60" height="60" viewBox="0 0 60 60" fill="none" xmlns="http://www.w3.org/2000/svg">
<path d="M3.23707 27.0399V33.8908L33.0605 47.9998V40.2846L3.23707 27.0399Z" fill="#E56422"/>
<path d="M60 31.673V38.2403L33.058 47.9999V40.2847L60 31.673Z" fill="#E77422"/>
<path d="M3.23512 26.0622V32.9125L33.0586 47.0215V39.3062L3.23512 26.0622Z" fill="#F3EFCF"/>
<path d="M60 30.6943V37.2627L33.058 47.0218V39.3065L60 30.6943Z" fill="#FEFAD8"/>
<path d="M58.953 31.0285L60 30.6943V37.2627L58.953 37.6413V31.0285Z" fill="#E24E22"/>
<path d="M60 30.6945L29.4344 18.3412L3.23455 26.062L33.058 40.0081L60 30.6945Z" fill="#E77422"/>
<g style="mix-blend-mode:multiply" opacity="0.3">
<path d="M29.4337 18.3416L31.3239 19.1055C29.1196 19.7233 26.9392 20.4309 24.7722 21.156C21.5129 22.2445 18.261 23.3689 14.9258 24.245C14.169 24.4439 13.3999 24.6056 12.6468 24.8134C12.1367 24.9527 11.5544 25.115 11.1534 25.4531C10.2961 26.1759 10.6372 26.8224 11.4779 27.4043C14.0214 29.1616 16.5888 30.9617 19.4789 32.2192C22.2777 33.4368 24.9896 34.8072 27.7266 36.1338C29.5231 37.0044 31.4874 37.8188 33.552 37.8822C35.7508 37.9524 37.6545 36.9965 39.6751 36.3568C41.4446 35.7952 43.2956 35.4908 45.0523 34.8876C49.0096 33.529 52.64 31.4981 56.301 29.5907L56.7253 29.37L59.998 30.6921L33.0567 40.0058L3.23322 26.0603L29.4337 18.3416Z" fill="#E77422"/>
</g>
<path d="M33.0043 41.4246C33.0084 41.4341 33.0154 41.4424 33.0246 41.4483C33.0337 41.4541 33.0446 41.4574 33.0557 41.4577C33.0627 41.4574 33.0696 41.4559 33.0759 41.4532L58.9531 32.2687V32.1614C58.946 32.1618 58.9389 32.1633 58.9323 32.1659L33.0368 41.3583C33.0298 41.3606 33.0234 41.3642 33.018 41.3688C33.0126 41.3734 33.0082 41.379 33.0052 41.3851C33.0022 41.3913 33.0006 41.398 33.0004 41.4048C33.0002 41.4115 33.0016 41.4183 33.0043 41.4246Z" fill="#FBE4CD"/>
<path d="M33.0043 42.8077C33.0084 42.8171 33.0155 42.8253 33.0246 42.8311C33.0338 42.8369 33.0446 42.8401 33.0557 42.8402C33.0624 42.8414 33.0693 42.8414 33.0759 42.8402L58.9531 33.6524V33.5445C58.946 33.5447 58.9389 33.546 58.9323 33.5485L33.0368 42.7414C33.0298 42.7436 33.0233 42.7472 33.0179 42.7518C33.0124 42.7563 33.008 42.7619 33.005 42.7681C33.0019 42.7743 33.0003 42.781 33.0002 42.7878C33.0001 42.7946 33.0015 42.8014 33.0043 42.8077Z" fill="#FBE4CD"/>
<path d="M33.0043 44.1924C33.0088 44.2017 33.016 44.2097 33.025 44.2155C33.0341 44.2214 33.0447 44.2248 33.0557 44.2256C33.0627 44.2252 33.0695 44.2239 33.0759 44.2217L58.9531 35.0326V34.9276C58.946 34.9278 58.9389 34.9291 58.9323 34.9316L33.0368 44.1217C33.0226 44.1275 33.0113 44.138 33.0053 44.1512C32.9993 44.1643 32.9989 44.1791 33.0043 44.1924Z" fill="#FBE4CD"/>
<path d="M33.0043 45.5742C33.0082 45.5839 33.0151 45.5924 33.0243 45.5984C33.0335 45.6044 33.0445 45.6077 33.0557 45.6079C33.0627 45.6075 33.0695 45.6062 33.0759 45.604L58.9531 36.4189V36.3116C58.946 36.312 58.9389 36.3135 58.9323 36.3161L33.0368 45.5085C33.0298 45.5107 33.0234 45.5141 33.0179 45.5187C33.0124 45.5232 33.0081 45.5287 33.005 45.5349C33.002 45.5411 33.0003 45.5477 33.0002 45.5545C33.0001 45.5613 33.0015 45.568 33.0043 45.5742Z" fill="#FBE4CD"/>
<path d="M3.23458 27.3709V27.4799L32.9815 41.4693C32.9886 41.474 32.9972 41.4764 33.006 41.476C33.0165 41.4762 33.0268 41.4735 33.0357 41.4685C33.0446 41.4634 33.0517 41.456 33.0562 41.4473C33.0568 41.4446 33.0568 41.4417 33.0562 41.4389V41.4097C33.0552 41.4028 33.0521 41.3963 33.0474 41.3909C33.0426 41.3854 33.0364 41.3813 33.0293 41.3788L3.26275 27.3771C3.25403 27.373 3.24438 27.3709 3.23458 27.3709Z" fill="#F0DEC6"/>
<path d="M3.23427 28.7868V28.8991L32.9812 42.8874C32.989 42.8901 32.9973 42.8916 33.0057 42.8919C33.0159 42.8919 33.026 42.8894 33.0348 42.8847C33.0437 42.88 33.051 42.8731 33.0559 42.8649C33.0565 42.8619 33.0565 42.8589 33.0559 42.8559C33.0589 42.8518 33.0605 42.8469 33.0605 42.8419C33.0605 42.8369 33.0589 42.832 33.0559 42.8278C33.0554 42.8205 33.0526 42.8135 33.0478 42.8076C33.043 42.8017 33.0365 42.7972 33.029 42.7947L3.26243 28.793C3.25372 28.7889 3.24406 28.7868 3.23427 28.7868Z" fill="#F0DEC6"/>
<path d="M3.23456 30.1699V30.2823L32.9815 44.271C32.9889 44.2749 32.9974 44.2769 33.006 44.2767C33.0165 44.2768 33.0268 44.2742 33.0357 44.2691C33.0446 44.2641 33.0517 44.2567 33.0562 44.248C33.0568 44.2454 33.0568 44.2427 33.0562 44.2402V44.211C33.055 44.2039 33.0519 44.1972 33.0472 44.1916C33.0425 44.1859 33.0363 44.1813 33.0293 44.1784L3.26272 30.1767C3.25427 30.1719 3.24447 30.1696 3.23456 30.1699Z" fill="#F0DEC6"/>
<path d="M3.23458 31.553V31.6653L32.9815 45.6536C32.989 45.6574 32.9974 45.6594 33.006 45.6592C33.0164 45.6595 33.0267 45.657 33.0357 45.652C33.0446 45.647 33.0517 45.6397 33.0562 45.6311C33.0568 45.6283 33.0568 45.6255 33.0562 45.6227V45.5912C33.0553 45.5843 33.0523 45.5777 33.0475 45.5723C33.0428 45.5668 33.0364 45.5627 33.0293 45.5603L3.26275 31.5592C3.25412 31.5549 3.2444 31.5528 3.23458 31.553Z" fill="#F0DEC6"/>
<g style="mix-blend-mode:multiply" opacity="0.6">
<path d="M37.5903 43.4318C39.2821 42.8202 40.9763 42.2187 42.6828 41.6425C45.8429 40.5753 49.0165 39.5593 52.2286 38.6293C54.0411 38.1047 56.3396 37.5835 57.5306 36.1019C58.2427 35.2145 58.2304 34.2097 58.1741 33.146C58.1434 32.5467 58.0537 31.9511 57.9059 31.3667L60 30.6966V37.2678L33.0586 47.0275V45.1319C34.5882 44.604 36.07 43.9823 37.5903 43.4318Z" fill="#E0E0E0"/>
</g>
<g style="mix-blend-mode:multiply" opacity="0.4">
<path d="M5.00678 26.8499C4.8782 27.5896 4.7986 28.3332 4.83472 29.0835C4.89167 30.2798 5.24619 31.3902 6.25466 32.2079C7.40456 33.1419 8.80919 33.6912 10.1869 34.277C11.6797 34.9122 13.1314 35.6424 14.5955 36.3309C16.0827 37.0313 17.5682 37.7457 18.9716 38.5825C20.315 39.384 21.5433 40.3236 22.9369 41.0538C24.3305 41.7839 25.7712 42.4079 27.223 43.0161C28.5976 43.5907 29.9735 44.3208 31.4191 44.7325C31.9477 44.8892 32.4975 44.9776 33.0527 44.9954V47.0173L3.22988 32.9077V26.0557L5.00678 26.8499Z" fill="#E0E0E0"/>
</g>
<g style="mix-blend-mode:soft-light" opacity="0.2">
<path d="M30.1754 20.0604C28.7567 20.2082 27.5982 21.2601 26.3222 21.7695C23.9991 22.6973 21.4672 23.0119 19.097 23.8094C18.4339 24.0284 17.7962 24.3075 17.1933 24.6423C16.1935 25.2039 14.0094 26.2149 14.989 27.5415C15.2952 27.9565 15.7691 28.3278 16.2075 28.6204C17.1835 29.2725 18.2422 29.833 19.2513 30.4424C20.3081 31.0781 21.368 31.7128 22.4738 32.275C24.0967 33.095 25.7639 33.8388 27.469 34.5036C28.6171 34.9529 29.7125 35.4803 30.9389 35.7426C33.6778 36.3272 36.3113 35.2157 38.9154 34.5957C40.4462 34.2306 41.9935 33.9099 43.5138 33.5027C44.3851 33.2702 45.2485 33.0085 46.091 32.6979C47.0872 32.3306 48.0761 31.9459 49.0962 31.637C49.9657 31.373 51.9257 31.1152 52.1577 30.0953C52.4026 29.0209 50.3337 28.3278 49.5701 27.9846C48.1294 27.3376 46.6311 26.8052 45.1401 26.2643C44.297 25.9577 43.4557 25.642 42.6297 25.3022C40.3354 24.3609 38.106 23.264 35.8466 22.2542C35.1253 21.9324 34.4315 21.5623 33.7194 21.2258C33.1683 20.9636 32.575 20.7956 31.9866 20.6153C31.3982 20.4351 30.8845 20.0093 30.2207 20.0588L30.1754 20.0604Z" fill="white"/>
</g>
<path d="M13.672 23.7397C13.3517 23.815 13.0333 23.8953 12.7162 23.9779C12.399 24.0604 12.0794 24.1385 11.764 24.225L9.86895 24.7473C9.24072 24.9299 8.61005 25.1073 7.98489 25.2977C7.35973 25.4881 6.7315 25.674 6.10818 25.87C6.0675 25.8828 6.03174 25.9061 6.00525 25.9372C5.97876 25.9682 5.96269 26.0057 5.95899 26.0449C5.9553 26.0842 5.96413 26.1236 5.98442 26.1584C6.00471 26.1932 6.03558 26.2218 6.07328 26.2407C6.5223 26.4684 6.97438 26.6917 7.42953 26.9108C7.88141 27.1354 8.3388 27.3494 8.79619 27.5645C9.25358 27.7796 9.70852 27.9987 10.1702 28.2065C10.6319 28.4143 11.0887 28.6254 11.5589 28.8243C11.5644 28.8267 11.5703 28.8281 11.5763 28.8284C11.5824 28.8287 11.5885 28.8279 11.5942 28.8261C11.5999 28.8242 11.6051 28.8212 11.6096 28.8175C11.6141 28.8137 11.6176 28.8091 11.6201 28.8041C11.6246 28.795 11.6253 28.7848 11.6221 28.7753C11.619 28.7658 11.6122 28.7576 11.603 28.7524C11.1744 28.4957 10.7298 28.2548 10.292 28.0065C9.85425 27.7583 9.40727 27.5269 8.96519 27.2865C8.5231 27.0461 8.07979 26.808 7.63159 26.5777C7.18338 26.3474 6.73824 26.1127 6.28758 25.8858L6.25146 26.2576C6.87784 26.0694 7.50178 25.874 8.1251 25.6774C8.74843 25.4808 9.36931 25.2775 9.99141 25.0764L11.8467 24.4468C12.1528 24.3418 12.459 24.2272 12.7688 24.1183C13.0786 24.0093 13.3811 23.897 13.6873 23.7813C13.6928 23.7792 13.6971 23.7752 13.6994 23.7701C13.7017 23.7651 13.7018 23.7594 13.6995 23.7543C13.6978 23.7491 13.694 23.7448 13.6889 23.742C13.6838 23.7393 13.6777 23.7385 13.672 23.7397Z" fill="white"/>
<path d="M57.0941 30.675C57.0941 30.675 56.7188 30.7412 56.1757 30.885C55.6326 31.0288 54.915 31.2422 54.2102 31.4843C53.5054 31.7264 52.8135 31.9988 52.3029 32.2229C51.7922 32.4469 51.4616 32.6211 51.4616 32.6211C51.4516 32.6268 51.4443 32.6358 51.4414 32.6462C51.4384 32.6567 51.4399 32.6678 51.4456 32.6772C51.4503 32.6847 51.4574 32.6907 51.466 32.6943C51.4746 32.698 51.4841 32.6991 51.4934 32.6974C51.4934 32.6974 51.8675 32.6284 52.4119 32.4812C52.9562 32.3341 53.6695 32.1156 54.3712 31.869C55.0729 31.6225 55.7636 31.3444 56.2737 31.1164C56.7837 30.8884 57.1125 30.712 57.1125 30.712C57.1175 30.709 57.1211 30.7044 57.1224 30.6991C57.1238 30.6937 57.1229 30.6881 57.1199 30.6834C57.1172 30.6796 57.1132 30.6767 57.1085 30.6752C57.1039 30.6737 57.0988 30.6736 57.0941 30.675Z" fill="white"/>
<path d="M57.3418 21.9785L56.9395 28.8187L26.3323 41.4365L26.7848 33.733L57.3418 21.9785Z" fill="#6EA035"/>
<path d="M0.384954 23.8043L-0.000183105 30.3626L26.3307 41.4364L26.7832 33.733L0.384954 23.8043Z" fill="#79B03A"/>
<path d="M57.3984 21.0016L56.9968 27.8418L26.3902 40.4597L26.8426 32.7562L57.3984 21.0016Z" fill="#F3EFCF"/>
<path d="M0.445503 22.827L0.0609779 29.3852L26.3913 40.4597L26.8438 32.7557L0.445503 22.827Z" fill="#FEFAD8"/>
<path d="M1.4707 23.2128L0.444481 22.827L0.0599568 29.3853L1.08312 29.816L1.4707 23.2128Z" fill="#6A9A33"/>
<path d="M0.443787 22.8273L31.6896 12L57.3984 21.0014L26.801 33.4558L0.443787 22.8273Z" fill="#79B03A"/>
<g style="mix-blend-mode:multiply" opacity="0.3">
<path d="M31.6903 12L29.7578 12.6695C31.9254 13.3962 34.0586 14.2101 36.1809 15.0402C39.371 16.2881 42.5525 17.5709 45.8326 18.6128C46.5747 18.8486 47.3334 19.0475 48.0737 19.2923C48.5751 19.4569 49.147 19.6479 49.5285 20.0045C50.3447 20.7695 49.9632 21.3979 49.0895 21.9365C46.4468 23.5653 43.7777 25.2379 40.8173 26.3505C37.9517 27.4288 35.1632 28.6628 32.3522 29.8523C30.5073 30.6336 28.4983 31.348 26.4324 31.3126C24.233 31.2744 22.3875 30.2258 20.4055 29.4867C18.6708 28.8414 16.8419 28.4437 15.1225 27.7551C11.2509 26.2039 7.74367 23.9961 4.20088 21.9113C4.06372 21.8304 3.92657 21.7495 3.78941 21.6698L0.445625 22.8279L26.801 33.4564L57.3984 21.0014L31.6903 12Z" fill="#79B03A"/>
</g>
<path d="M26.771 34.8737C26.7663 34.8833 26.7586 34.8912 26.7489 34.8967C26.7391 34.9021 26.7278 34.9047 26.7165 34.9041C26.7096 34.9036 26.703 34.9019 26.6969 34.899L1.3965 24.4525L1.40323 24.3458C1.41003 24.3465 1.41665 24.3482 1.42282 24.3508L26.7434 34.808C26.7564 34.8135 26.7666 34.8235 26.7717 34.8358C26.7769 34.848 26.7766 34.8617 26.771 34.8737Z" fill="#FBE4CD"/>
<path d="M26.6903 36.2548C26.6858 36.2642 26.6783 36.2722 26.6688 36.2776C26.6593 36.283 26.6482 36.2856 26.637 36.2851C26.6301 36.286 26.6231 36.286 26.6162 36.2851L1.31581 25.8352L1.32255 25.728C1.3294 25.7287 1.33604 25.7306 1.34214 25.7336L26.6621 36.1868C26.6689 36.1896 26.6749 36.1935 26.68 36.1984C26.6851 36.2033 26.6891 36.2091 26.6917 36.2154C26.6943 36.2217 26.6955 36.2285 26.6953 36.2352C26.695 36.242 26.6933 36.2486 26.6903 36.2548Z" fill="#FBE4CD"/>
<path d="M26.6064 37.6368C26.6015 37.646 26.5938 37.6539 26.5843 37.6594C26.5748 37.665 26.5638 37.668 26.5525 37.6682C26.5456 37.6671 26.5388 37.6652 26.5323 37.6626L1.23195 27.2161L1.23869 27.111C1.24529 27.1117 1.25173 27.1134 1.25768 27.1161L26.5783 37.5677C26.5919 37.5735 26.6024 37.584 26.6077 37.597C26.6129 37.6099 26.6125 37.6241 26.6064 37.6368Z" fill="#FBE4CD"/>
<path d="M26.5293 39.0199C26.5249 39.0293 26.5175 39.0373 26.5079 39.0428C26.4984 39.0482 26.4873 39.0508 26.4761 39.0502C26.469 39.0499 26.4621 39.0482 26.4559 39.0451L1.15486 28.5986L1.16098 28.4914C1.16798 28.4923 1.1748 28.4942 1.18119 28.497L26.4987 38.9502C26.506 38.9526 26.5127 38.9563 26.5183 38.9613C26.5239 38.9662 26.5283 38.9721 26.5312 38.9787C26.5341 38.9853 26.5354 38.9924 26.5351 38.9995C26.5348 39.0066 26.5328 39.0135 26.5293 39.0199Z" fill="#FBE4CD"/>
<path d="M57.3203 22.3085L57.3136 22.4209L26.7909 34.9202C26.783 34.9242 26.7741 34.9259 26.7651 34.9252C26.7547 34.925 26.7447 34.9219 26.7362 34.9164C26.7277 34.9109 26.7211 34.9033 26.7174 34.8944C26.7174 34.8944 26.7174 34.8882 26.7174 34.8865V34.8573C26.7189 34.8504 26.7224 34.8441 26.7274 34.8389C26.7325 34.8337 26.7389 34.8297 26.7462 34.8275L57.2934 22.3142C57.3018 22.3104 57.311 22.3085 57.3203 22.3085Z" fill="#F0DEC6"/>
<path d="M57.2402 23.7226L57.2335 23.8321L26.7102 36.3359C26.702 36.3381 26.6936 36.3392 26.6851 36.3393C26.6749 36.3386 26.6652 36.3355 26.6569 36.3301C26.6486 36.3248 26.642 36.3175 26.6379 36.3089C26.6379 36.3089 26.6379 36.3033 26.6379 36.3011C26.6349 36.2968 26.6333 36.2918 26.6333 36.2868C26.6333 36.2817 26.6349 36.2767 26.6379 36.2724C26.639 36.2653 26.6423 36.2586 26.6472 36.2531C26.6522 36.2476 26.6587 36.2434 26.6661 36.241L57.2133 23.7271C57.2219 23.7239 57.231 23.7224 57.2402 23.7226Z" fill="#F0DEC6"/>
<path d="M57.1602 25.103L57.1534 25.2153L26.6301 37.718C26.6225 37.7215 26.6141 37.7231 26.6056 37.7225C26.5952 37.7221 26.5851 37.7189 26.5765 37.7135C26.568 37.708 26.5613 37.7004 26.5572 37.6916C26.5564 37.6888 26.5564 37.6859 26.5572 37.6832V37.654C26.5594 37.6472 26.5631 37.6409 26.568 37.6355C26.573 37.63 26.5791 37.6256 26.586 37.6225L57.1326 25.108C57.1412 25.1042 57.1507 25.1025 57.1602 25.103Z" fill="#F0DEC6"/>
<path d="M57.0762 26.4842L57.0694 26.5966L26.5455 39.0981C26.5383 39.1025 26.5296 39.1043 26.521 39.1032C26.5105 39.1029 26.5004 39.0997 26.4919 39.0941C26.4834 39.0885 26.4769 39.0807 26.4732 39.0717C26.4724 39.0691 26.4724 39.0664 26.4732 39.0639V39.0346C26.4749 39.028 26.4784 39.0217 26.4833 39.0166C26.4882 39.0114 26.4944 39.0074 26.5014 39.0049L57.0486 26.4893C57.0572 26.4854 57.0667 26.4837 57.0762 26.4842Z" fill="#F0DEC6"/>
<g style="mix-blend-mode:multiply" opacity="0.6">
<path d="M22.0756 36.6521C20.4224 35.9579 18.7692 35.2739 17.0957 34.6145C14.0018 33.394 10.8925 32.2219 7.74035 31.1323C5.96039 30.5184 3.69609 29.8849 2.597 28.3438C1.93694 27.4221 2.00858 26.4202 2.12737 25.3603C2.1931 24.7634 2.31771 24.1731 2.49965 23.5968L0.446594 22.8279L0.0614529 29.3856L26.3905 40.46L26.502 38.5707C25.0043 37.9709 23.5611 37.2789 22.0756 36.6521Z" fill="#E0E0E0"/>
</g>
<g style="mix-blend-mode:multiply" opacity="0.4">
<path d="M55.583 21.7006C55.6675 22.4453 55.7054 23.1923 55.624 23.9398C55.496 25.1311 55.0778 26.2229 54.0228 26.9895C52.8196 27.8646 51.385 28.3442 49.9749 28.8621C48.4441 29.4237 46.9544 30.0797 45.4518 30.6952C43.9253 31.3209 42.4001 31.9617 40.9501 32.7278C39.5614 33.4619 38.2799 34.3403 36.8477 35.0025C35.4155 35.6646 33.938 36.215 32.4495 36.7503C31.0412 37.2558 29.6256 37.9174 28.1597 38.2566C27.6222 38.3875 27.0674 38.4491 26.5114 38.4397L26.3932 40.4616L56.9968 27.8432L57.3984 21.003L55.583 21.7006Z" fill="#E0E0E0"/>
</g>
<g style="mix-blend-mode:soft-light" opacity="0.2">
<path d="M30.8482 13.6798C32.2565 13.8972 33.3506 15.0047 34.5955 15.5765C36.861 16.6177 39.3714 17.0564 41.6884 17.9696C42.338 18.2201 42.9589 18.5292 43.5418 18.8924C44.5074 19.5046 46.6297 20.6172 45.5741 21.896C45.2434 22.2959 44.7499 22.6419 44.2943 22.9137C43.2816 23.5175 42.1917 24.0247 41.1483 24.5824C40.056 25.1659 38.9606 25.7472 37.8229 26.2549C36.1541 26.9928 34.4459 27.653 32.7047 28.233C31.5321 28.6262 30.4067 29.0985 29.1662 29.3002C26.3979 29.7495 23.833 28.5094 21.2674 27.7613C19.7581 27.3215 18.2341 26.9244 16.7364 26.4436C15.8792 26.1679 15.033 25.8646 14.2094 25.5125C13.2365 25.0974 12.2715 24.6644 11.2704 24.3055C10.418 23.9994 8.4758 23.645 8.30252 22.6144C8.11882 21.5299 10.2276 20.9396 11.0107 20.634C12.487 20.0595 14.0159 19.604 15.535 19.135C16.3953 18.8705 17.2538 18.5975 18.1006 18.2987C20.4463 17.472 22.7376 16.4852 25.0533 15.5888C25.7917 15.3035 26.5057 14.971 27.2362 14.6666C27.8044 14.433 28.4044 14.2942 29.0033 14.1432C29.6021 13.9921 30.1367 13.5927 30.7992 13.6747L30.8482 13.6798Z" fill="white"/>
</g>
<path d="M47.101 18.2062C47.3986 18.3382 47.698 18.4646 47.9992 18.5887C48.3005 18.7128 48.5987 18.8426 48.9012 18.9628L50.7179 19.6828C51.3271 19.9142 51.9339 20.1512 52.5462 20.3753C53.1585 20.5994 53.7708 20.828 54.3831 21.0492L54.3678 20.6763C53.9053 20.8808 53.4449 21.0891 52.9865 21.3014C52.5254 21.5092 52.068 21.726 51.6137 21.9434C51.1593 22.1607 50.6989 22.3719 50.2464 22.5971C49.7939 22.8223 49.3402 23.0419 48.8932 23.2767C48.8881 23.2794 48.8836 23.283 48.88 23.2873C48.8764 23.2915 48.8737 23.2964 48.8722 23.3016C48.8707 23.3069 48.8703 23.3123 48.871 23.3177C48.8718 23.323 48.8737 23.3282 48.8767 23.3329C48.882 23.3417 48.8907 23.3484 48.9011 23.3517C48.9115 23.3551 48.9228 23.3547 48.933 23.3509C49.4112 23.1773 49.8815 22.9869 50.3554 22.8044C50.8293 22.6218 51.2947 22.4213 51.7637 22.2304C52.2327 22.0394 52.7023 21.8468 53.1665 21.6457C53.6306 21.4446 54.0978 21.2481 54.5607 21.0431C54.5992 21.0258 54.6315 20.9988 54.6536 20.9651C54.6757 20.9315 54.6868 20.8926 54.6854 20.8533C54.6841 20.8141 54.6704 20.776 54.6459 20.7437C54.6215 20.7114 54.5875 20.6862 54.5478 20.6713C53.9355 20.4466 53.3232 20.2253 52.7109 20.0074C52.0986 19.7895 51.4777 19.5778 50.8611 19.3643L48.9997 18.7499C48.6899 18.6471 48.3758 18.5544 48.0635 18.4556C47.7513 18.3567 47.4384 18.2618 47.123 18.1714C47.1202 18.1705 47.1172 18.1702 47.1143 18.1704C47.1113 18.1706 47.1085 18.1714 47.1058 18.1726C47.1032 18.1739 47.1009 18.1756 47.099 18.1777C47.0971 18.1798 47.0957 18.1823 47.0949 18.1849C47.0936 18.1886 47.0935 18.1926 47.0946 18.1964C47.0957 18.2001 47.0979 18.2036 47.101 18.2062Z" fill="white"/>
<path d="M3.32496 22.9899C3.32496 22.9899 3.64212 23.1848 4.1387 23.4342C4.63528 23.6835 5.30759 23.9958 5.99399 24.2766C6.68038 24.5574 7.38024 24.8136 7.91478 24.9849C8.44932 25.1562 8.81854 25.246 8.81854 25.246C8.82433 25.2474 8.83035 25.2476 8.83626 25.2468C8.84217 25.2461 8.84785 25.2442 8.85297 25.2414C8.85809 25.2385 8.86255 25.2348 8.8661 25.2304C8.86965 25.226 8.87222 25.221 8.87365 25.2157C8.87592 25.2072 8.87532 25.1984 8.87192 25.1902C8.86853 25.1821 8.86251 25.1751 8.85467 25.1702C8.85467 25.1702 8.53627 24.9776 8.03786 24.7316C7.53944 24.4856 6.86468 24.1783 6.17645 23.8998C5.48822 23.6212 4.7853 23.3718 4.24892 23.2045C3.71254 23.0371 3.34271 22.9495 3.34271 22.9495C3.33985 22.9488 3.33688 22.9487 3.33397 22.9491C3.33106 22.9495 3.32826 22.9504 3.32575 22.9518C3.32324 22.9532 3.32106 22.9551 3.31934 22.9573C3.31763 22.9595 3.31642 22.962 3.31577 22.9646C3.31406 22.9692 3.31403 22.9741 3.31569 22.9787C3.31735 22.9833 3.32061 22.9872 3.32496 22.9899Z" fill="white"/>
</svg>
