<svg width="30" height="30" viewBox="0 0 30 30" fill="none" xmlns="http://www.w3.org/2000/svg">
<g clip-path="url(#clip0_328_2558)">
<path d="M14.5028 0C22.5129 0 29.0057 6.51871 29.0057 14.5589C29.0057 22.5999 22.5129 29.1176 14.5028 29.1176C6.49264 29.1176 0 22.5998 0 14.5589C0 6.51871 6.49274 0 14.5028 0Z" fill="#3B5998"/>
<path d="M17.2551 10.6305H19.2374V7.69086H16.9071V7.70146C14.0836 7.80185 13.5049 9.39516 13.4539 11.0686H13.4481V12.5365H11.5254V15.4153H13.4481V23.132H16.3457V15.4153H18.7193L19.1778 12.5365H16.3466V11.6496C16.3466 11.0841 16.7215 10.6305 17.2551 10.6305Z" fill="white"/>
</g>
<defs>
<clipPath id="clip0_328_2558">
<rect width="29.8846" height="30" fill="white"/>
</clipPath>
</defs>
</svg>
