<svg width="60" height="108" viewBox="0 0 60 108" fill="none" xmlns="http://www.w3.org/2000/svg">
<path d="M10.4045 98.52C11.1379 98.52 11.8245 98.3667 12.4645 98.06C13.1045 97.7533 13.6712 97.3133 14.1645 96.74L16.0645 98.62C15.3979 99.4067 14.5445 100.033 13.5045 100.5C12.4779 100.967 11.4179 101.2 10.3245 101.2C9.2712 101.2 8.28453 101.013 7.36453 100.64C6.45786 100.267 5.6712 99.76 5.00453 99.12C4.33786 98.48 3.8112 97.72 3.42453 96.84C3.0512 95.96 2.86453 95.0133 2.86453 94C2.86453 92.9867 3.05786 92.04 3.44453 91.16C3.8312 90.2667 4.35786 89.5 5.02453 88.86C5.6912 88.22 6.47786 87.7133 7.38453 87.34C8.30453 86.9667 9.28453 86.78 10.3245 86.78C11.4445 86.78 12.5312 87.02 13.5845 87.5C14.6379 87.9667 15.4912 88.6 16.1445 89.4L14.1845 91.34C13.6912 90.7267 13.1112 90.26 12.4445 89.94C11.7779 89.6067 11.0712 89.44 10.3245 89.44C9.69786 89.44 9.10453 89.56 8.54453 89.8C7.99786 90.0267 7.52453 90.3467 7.12453 90.76C6.72453 91.16 6.4112 91.64 6.18453 92.2C5.95786 92.7467 5.84453 93.3467 5.84453 94C5.84453 94.64 5.95786 95.24 6.18453 95.8C6.42453 96.3467 6.74453 96.82 7.14453 97.22C7.55786 97.62 8.03787 97.94 8.58453 98.18C9.14453 98.4067 9.7512 98.52 10.4045 98.52ZM17.76 87H24.34C25.74 87 26.88 87.36 27.76 88.08C28.64 88.7867 29.08 89.7067 29.08 90.84C29.08 91.4533 28.9267 92.0133 28.62 92.52C28.3133 93.0267 27.8933 93.4467 27.36 93.78C28.0267 94.1 28.56 94.54 28.96 95.1C29.36 95.6467 29.56 96.26 29.56 96.94C29.56 98.1533 29.1067 99.1333 28.2 99.88C27.3067 100.627 26.1267 101 24.66 101H17.76V87ZM24.16 89.4H20.66V92.72H24.16C24.7733 92.72 25.2667 92.5733 25.64 92.28C26.0133 91.9733 26.2 91.5667 26.2 91.06C26.2 90.5533 26.0133 90.1533 25.64 89.86C25.2667 89.5533 24.7733 89.4 24.16 89.4ZM24.44 98.6C25.1067 98.6 25.64 98.44 26.04 98.12C26.44 97.7867 26.64 97.34 26.64 96.78C26.64 96.2467 26.44 95.8133 26.04 95.48C25.64 95.1467 25.1067 94.98 24.44 94.98H20.66V98.6H24.44ZM30.3881 98.78L32.0481 96.7C32.8615 97.4067 33.6415 97.9267 34.3881 98.26C35.1481 98.58 35.9481 98.74 36.7881 98.74C37.6548 98.74 38.3481 98.58 38.8681 98.26C39.3881 97.94 39.6481 97.5133 39.6481 96.98C39.6481 96.5 39.4681 96.1267 39.1081 95.86C38.7615 95.5933 38.1748 95.3933 37.3481 95.26L34.5681 94.78C33.3681 94.58 32.4548 94.16 31.8281 93.52C31.2148 92.88 30.9081 92.0533 30.9081 91.04C30.9081 89.7333 31.4015 88.7 32.3881 87.94C33.3881 87.18 34.7348 86.8 36.4281 86.8C37.4415 86.8 38.4615 86.9733 39.4881 87.32C40.5281 87.6667 41.4348 88.1467 42.2081 88.76L40.6481 90.92C39.9015 90.3467 39.1681 89.9267 38.4481 89.66C37.7281 89.38 36.9881 89.24 36.2281 89.24C35.4548 89.24 34.8348 89.3867 34.3681 89.68C33.9015 89.96 33.6681 90.34 33.6681 90.82C33.6681 91.2467 33.8215 91.58 34.1281 91.82C34.4348 92.06 34.9481 92.2333 35.6681 92.34L38.3081 92.78C39.6948 93.0067 40.7348 93.4533 41.4281 94.12C42.1348 94.7733 42.4881 95.64 42.4881 96.72C42.4881 98.08 41.9481 99.1667 40.8681 99.98C39.8015 100.793 38.3748 101.2 36.5881 101.2C35.4681 101.2 34.3615 100.987 33.2681 100.56C32.1881 100.133 31.2281 99.54 30.3881 98.78ZM44.2248 101V87H54.9848V89.52H47.1248V92.72H52.3048V95.16H47.1248V98.48H55.0648V101H44.2248Z" fill="#121212"/>
<g clip-path="url(#clip0_178_1148)">
<path d="M25.9168 27.3484C26.271 27.3484 26.6193 27.3762 26.9589 27.4293L32.2968 22.0915C30.3934 21.0747 28.2213 20.4972 25.917 20.4972C18.4264 20.4972 12.332 26.5914 12.332 34.0821C12.332 41.5729 18.4264 47.6671 25.917 47.6671C33.4076 47.6671 39.5018 41.5729 39.5018 34.0821C39.5018 31.7777 38.9244 29.6058 37.9074 27.7024L32.5698 33.0403C32.6227 33.38 32.6506 33.7279 32.6506 34.0823C32.6506 37.7953 29.63 40.816 25.9171 40.816C22.2041 40.816 19.1834 37.7953 19.1834 34.0823C19.1834 30.3693 22.2038 27.3484 25.9168 27.3484Z" fill="#D6183E"/>
<path d="M41.9042 23.7069C43.8502 26.695 44.9827 30.2593 44.9827 34.0832C44.9827 44.5963 36.4301 53.1492 25.9172 53.1492C15.4042 53.1492 6.85119 44.5963 6.85119 34.0834C6.85119 23.5704 15.4041 15.0174 25.917 15.0174C29.7414 15.0174 33.3053 16.1501 36.2936 18.0962L41.2139 13.1759C36.9235 10.0283 31.6339 8.1662 25.9172 8.1662C11.6263 8.1662 0 19.7926 0 34.0834C0 48.3741 11.6263 60.0007 25.9172 60.0007C40.2079 60.0007 51.8339 48.3741 51.8339 34.0834C51.8339 28.3664 49.9722 23.0769 46.8246 18.7868L41.9042 23.7069Z" fill="#D6183E"/>
<path d="M59.9332 8.17149C59.7718 7.66091 59.339 7.2832 58.8115 7.19145L53.6972 6.30316L52.8091 1.18872C52.7172 0.661262 52.3393 0.22859 51.829 0.06715C51.3188 -0.0947232 50.7611 0.0414696 50.3824 0.420184L46.4276 4.37482C46.1589 4.64375 46.0078 5.00861 46.0075 5.38891L46.0078 11.2891L24.6411 32.6552C23.8944 33.4021 23.8944 34.6124 24.6411 35.3593C25.3882 36.1059 26.5986 36.1062 27.3454 35.3593L48.7113 13.993H54.6115C54.9916 13.993 55.3565 13.842 55.6253 13.573L59.5801 9.6181C59.9589 9.23968 60.095 8.68178 59.9332 8.17149Z" fill="#2851E7"/>
</g>
<defs>
<clipPath id="clip0_178_1148">
<rect width="60" height="60" fill="white"/>
</clipPath>
</defs>
</svg>
