<svg width="28" height="28" viewBox="0 0 28 28" fill="none" xmlns="http://www.w3.org/2000/svg">
<rect width="28" height="28" rx="4" fill="#F5F8FE"/>
<path d="M22.1702 16.0723L22.159 14.1581L24 13.128L13.9725 7.83972L4 13.2338L7.99826 15.5294L8.00623 16.8934L8.00705 17.0023L8.04358 16.9849C8.00143 17.042 7.97442 17.1009 7.97523 17.1597C7.97841 17.8306 10.6866 18.3615 14.0291 18.3433C17.37 18.3258 20.0742 17.7639 20.0718 17.0945C20.0718 17.0357 20.0408 16.9785 19.9995 16.9197L20.036 16.9372V16.8282L20.0288 15.4587L21.7625 14.38L21.772 16.0747C21.5812 16.1565 21.4485 16.3442 21.4501 16.5636C21.4517 16.8513 21.6854 17.0842 21.9755 17.0818C22.2672 17.0802 22.4985 16.8449 22.4969 16.558C22.4953 16.3385 22.3618 16.1526 22.1702 16.0723ZM14.0266 17.8814C11.061 17.8981 8.65563 17.5722 8.65327 17.1565C8.65091 16.7408 11.053 16.3918 14.0188 16.3767C16.9852 16.36 19.3898 16.6843 19.3914 17.0992C19.3937 17.5134 16.9931 17.8656 14.0266 17.8814ZM19.8921 14.3474C19.4907 13.9253 18.0519 12.8109 13.9996 12.834C9.94174 12.8554 8.52131 13.9834 8.12469 14.4118L8.12233 14.008C8.12233 14.008 9.2733 12.2569 13.9965 12.2322C18.7173 12.2068 19.8898 13.9444 19.8898 13.9444L19.8921 14.3474ZM21.5534 17.1962L21.3491 20.1603C21.981 19.1675 22.5089 19.5371 22.5089 19.5371L22.4962 17.1914C21.8172 17.4578 21.5534 17.1962 21.5534 17.1962Z" fill="#010002"/>
</svg>
