<svg width="237" height="208" viewBox="0 0 237 208" fill="none" xmlns="http://www.w3.org/2000/svg">
<path d="M147.212 0.800036L147.212 89.6L194.412 89.6C194.412 98.6667 193.879 107.733 192.812 116.8C191.212 126.4 188.546 134.933 184.812 142.4C181.079 149.867 176.279 155.733 170.412 160C164.546 164.8 157.079 167.2 148.012 167.2L148.012 207.2C162.946 207.2 176.013 204 187.212 197.6C198.412 191.2 207.746 182.667 215.212 172C222.146 161.333 227.479 148.8 231.212 134.4C234.412 120.533 236.012 105.6 236.012 89.6L236.012 0.800029L147.212 0.800036ZM0.812474 0.800049L0.812482 89.6001L48.0125 89.6C48.0125 98.6667 47.4791 107.733 46.4125 116.8C44.8125 126.4 42.1458 134.933 38.4125 142.4C34.6791 149.867 29.8791 155.733 24.0125 160C18.1458 164.8 10.6792 167.2 1.61248 167.2L1.61248 207.2C16.5458 207.2 29.6125 204 40.8125 197.6C52.0125 191.2 61.3458 182.667 68.8125 172C75.7458 161.333 81.0791 148.8 84.8125 134.4C88.0125 120.533 89.6125 105.6 89.6125 89.6L89.6125 0.800041L0.812474 0.800049Z" fill="#2851E7"/>
</svg>
