<svg width="30" height="30" viewBox="0 0 30 30" fill="none" xmlns="http://www.w3.org/2000/svg">
<g clip-path="url(#clip0_328_2567)">
<path d="M14.9814 29.999C23.2338 29.999 29.9237 23.2833 29.9237 14.999C29.9237 6.71475 23.2338 -0.000976562 14.9814 -0.000976562C6.72896 -0.000976562 0.0390625 6.71475 0.0390625 14.999C0.0390625 23.2833 6.72896 29.999 14.9814 29.999Z" fill="#007AB9"/>
<path d="M23.9084 16.2066V22.3908H20.3367V16.6211C20.3367 15.1724 19.8211 14.183 18.5279 14.183C17.541 14.183 16.9548 14.8491 16.6959 15.494C16.6018 15.7245 16.5776 16.0446 16.5776 16.3678V22.3905H13.0057C13.0057 22.3905 13.0536 12.6185 13.0057 11.607H16.5779V13.1351C16.5707 13.1471 16.5606 13.1589 16.5542 13.1704H16.5779V13.1351C17.0525 12.4019 17.899 11.3538 19.7968 11.3538C22.1467 11.3538 23.9084 12.895 23.9084 16.2066ZM9.26919 6.40894C8.04739 6.40894 7.24805 7.21404 7.24805 8.27184C7.24805 9.30717 8.02422 10.1355 9.22231 10.1355H9.24549C10.4913 10.1355 11.2658 9.30717 11.2658 8.27184C11.2421 7.21404 10.4913 6.40894 9.26919 6.40894ZM7.46034 22.3908H11.0309V11.607H7.46034V22.3908Z" fill="#F1F2F2"/>
</g>
<defs>
<clipPath id="clip0_328_2567">
<rect width="29.8846" height="30" fill="white" transform="translate(0.0390625)"/>
</clipPath>
</defs>
</svg>
