<svg width="16" height="16" viewBox="0 0 16 16" fill="none" xmlns="http://www.w3.org/2000/svg">
<path d="M7.99049 1.33331C10.0363 1.33331 11.6825 2.94317 11.6825 4.93065V5.95288C12.8307 6.31129 13.6673 7.35074 13.6673 8.59225V11.8835C13.6673 13.4205 12.3931 14.6666 10.8221 14.6666H5.17985C3.60822 14.6666 2.33398 13.4205 2.33398 11.8835V8.59225C2.33398 7.35074 3.17128 6.31129 4.31884 5.95288V4.93065C4.32562 2.94317 5.97176 1.33331 7.99049 1.33331ZM7.99727 8.92283C7.6721 8.92283 7.40791 9.1812 7.40791 9.4992V10.9699C7.40791 11.2946 7.6721 11.5529 7.99727 11.5529C8.3292 11.5529 8.5934 11.2946 8.5934 10.9699V9.4992C8.5934 9.1812 8.3292 8.92283 7.99727 8.92283ZM8.00404 2.49268C6.62886 2.49268 5.51111 3.57916 5.50434 4.9174V5.80912H10.497V4.93065C10.497 3.58579 9.37921 2.49268 8.00404 2.49268Z" fill="#808080"/>
</svg>
