<svg width="56" height="60" viewBox="0 0 56 60" fill="none" xmlns="http://www.w3.org/2000/svg">
<g style="mix-blend-mode:multiply">
<path d="M53.7872 56.8276H6.70446C5.58727 56.8276 4.68037 56.1153 4.68037 55.2375V54.7568H2.97246C2.53434 54.7568 2.1875 54.4286 2.1875 54.022C2.1875 53.6154 2.53799 53.2879 2.97246 53.2879H4.68037V50.0474H2.97246C2.53434 50.0474 2.1875 49.7185 2.1875 49.3119C2.1875 48.9053 2.53799 48.5771 2.97246 48.5771H4.68037V45.3373H2.97246C2.53434 45.3373 2.1875 45.0084 2.1875 44.6025C2.1875 44.1967 2.53799 43.867 2.97246 43.867H4.68037V40.6265H2.97246C2.53434 40.6265 2.1875 40.2983 2.1875 39.8924C2.1875 39.4865 2.53799 39.1576 2.97246 39.1576H4.68037V35.9171H2.97246C2.53434 35.9171 2.1875 35.5889 2.1875 35.1823C2.1875 34.7757 2.53799 34.4475 2.97246 34.4475H4.68037V31.2077H2.97246C2.53434 31.2077 2.1875 30.8781 2.1875 30.4729C2.1875 30.0678 2.53799 29.7374 2.97246 29.7374H4.68037V26.4969H2.97246C2.53434 26.4969 2.1875 26.1687 2.1875 25.7621C2.1875 25.3555 2.53799 25.028 2.97246 25.028H4.68037V21.7868H2.97246C2.53434 21.7868 2.1875 21.4586 2.1875 21.052C2.1875 20.6454 2.53799 20.3179 2.97246 20.3179H4.68037V17.0774H2.97246C2.53434 17.0774 2.1875 16.7485 2.1875 16.3434C2.1875 15.9382 2.53799 15.6071 2.97246 15.6071H4.68037V12.3666H2.97246C2.53434 12.3666 2.1875 12.0384 2.1875 11.6325C2.1875 11.2266 2.53799 10.8977 2.97246 10.8977H4.68037V7.65722H2.97246C2.53434 7.65722 2.1875 7.3283 2.1875 6.9217C2.1875 6.51509 2.53799 6.18763 2.97246 6.18763H4.68037V2.94711H2.97246C2.53434 2.94711 2.1875 2.6182 2.1875 2.21304C2.1875 1.80789 2.53799 1.47752 2.97246 1.47752H4.68914C4.75485 0.728203 5.47993 0.124104 6.41312 0.0173683C6.51006 0.0059433 6.60758 0.000118256 6.70519 -6.48499e-05H53.7879C54.9059 -6.48499e-05 55.8128 0.71077 55.8128 1.5886V55.2375C55.812 56.1124 54.9051 56.8276 53.7872 56.8276Z" fill="#EBEBEB"/>
</g>
<path d="M2.49805 3.76164C2.49805 2.88308 3.40421 2.17224 4.52214 2.17224H51.6049C52.7228 2.17224 53.6297 2.88308 53.6297 3.76164V57.4105C53.6297 58.2891 52.7228 59.0006 51.6049 59.0006H4.52214C3.40421 59.0006 2.49805 58.2891 2.49805 57.4105V3.76164Z" fill="#E6E0D2"/>
<path d="M6.89062 5.48229C6.89062 4.67053 7.67631 4.01197 8.64308 4.01197H49.4929C50.4626 4.01197 51.2454 4.67053 51.2454 5.48229V55.0956C51.2454 55.9081 50.4597 56.5659 49.4929 56.5659H8.64673C7.67631 56.5659 6.89427 55.9081 6.89427 55.0956L6.89062 5.48229Z" stroke="#535252" stroke-width="0.79" stroke-miterlimit="10"/>
<path d="M51.3376 52.7292H6.88867" stroke="#535252" stroke-width="0.79" stroke-miterlimit="10"/>
<path d="M51.3376 49.7364H6.88867" stroke="#535252" stroke-width="0.79" stroke-miterlimit="10"/>
<path d="M51.3376 46.745H6.88867" stroke="#535252" stroke-width="0.79" stroke-miterlimit="10"/>
<path d="M51.3376 43.7536H6.88867" stroke="#535252" stroke-width="0.79" stroke-miterlimit="10"/>
<path d="M51.3376 40.7613H6.88867" stroke="#535252" stroke-width="0.79" stroke-miterlimit="10"/>
<path d="M51.3376 37.7699H6.88867" stroke="#535252" stroke-width="0.79" stroke-miterlimit="10"/>
<path d="M51.3376 34.7785H6.88867" stroke="#535252" stroke-width="0.79" stroke-miterlimit="10"/>
<path d="M51.3376 31.7867H6.88867" stroke="#535252" stroke-width="0.79" stroke-miterlimit="10"/>
<path d="M51.3376 28.7958H6.88867" stroke="#535252" stroke-width="0.79" stroke-miterlimit="10"/>
<path d="M51.3376 25.8034H6.88867" stroke="#535252" stroke-width="0.79" stroke-miterlimit="10"/>
<path d="M51.3376 22.812H6.88867" stroke="#535252" stroke-width="0.79" stroke-miterlimit="10"/>
<path d="M51.3376 19.8192H6.88867" stroke="#535252" stroke-width="0.79" stroke-miterlimit="10"/>
<path d="M51.3376 16.8278H6.88867" stroke="#535252" stroke-width="0.79" stroke-miterlimit="10"/>
<path d="M51.3376 13.8369H6.88867" stroke="#535252" stroke-width="0.79" stroke-miterlimit="10"/>
<path d="M51.3376 10.8446H6.88867" stroke="#535252" stroke-width="0.79" stroke-miterlimit="10"/>
<path d="M51.3376 7.85272H6.88867" stroke="#535252" stroke-width="0.79" stroke-miterlimit="10"/>
<g style="mix-blend-mode:multiply" opacity="0.3">
<path d="M8.58752 3.15592C12.8591 3.85078 17.1914 4.04683 21.5119 4.21819C23.6353 4.30241 25.7587 4.3772 27.8792 4.50862C29.9836 4.63496 32.0705 4.8811 34.1698 5.0677C38.142 5.42057 42.0865 5.7415 45.8667 7.10727C47.127 7.56107 48.6655 8.18405 49.2438 9.50334C49.5454 10.1909 49.625 10.9119 49.6885 11.6533C49.7732 12.632 49.9383 13.5992 50.0456 14.5758C51.0598 23.7317 49.8959 32.9609 49.4556 42.1161C49.1752 47.7434 49.2059 53.3817 49.5476 59.0056H51.6024C52.7203 59.0056 53.6272 58.294 53.6272 57.4154V3.76147C53.6272 2.88291 52.7203 2.17208 51.6024 2.17208H4.51962C4.42199 2.17264 4.32448 2.1787 4.22754 2.19023C5.66058 2.5968 7.11642 2.91926 8.58752 3.15592Z" fill="#E6E0D2"/>
</g>
<g style="mix-blend-mode:soft-light" opacity="0.5">
<path d="M20.5192 55.8215C17.9109 55.7003 15.2661 55.8404 12.6564 55.8506C11.6736 55.8506 9.76561 56.2303 9.1946 55.396C8.71195 54.6925 9.15007 52.1955 9.14642 51.3409C9.11429 44.5157 9.82184 37.5838 9.79482 30.6809C9.77924 26.4328 9.5692 22.2215 9.16467 18.047C8.78643 14.1262 8.08764 10.9859 12.4505 9.23382C19.9868 6.20533 28.4527 9.29554 35.7802 11.3242C39.7232 12.4133 41.7173 14.8486 42.9404 18.7085C45.4771 26.7085 45.2361 34.3592 43.7955 42.5582C43.2237 45.8146 43.2639 49.5612 42.3095 52.6674C41.0777 56.6834 37.7743 56.3545 34.2599 56.2978C29.6772 56.2209 25.0967 56.0328 20.5192 55.8215Z" fill="white"/>
</g>
<path d="M3.23438 56.1954C3.23438 55.5877 3.76157 55.0939 4.41144 55.0939C5.06131 55.0939 5.58997 55.5877 5.58997 56.1954C5.58997 56.8031 5.06204 57.2976 4.41144 57.2976C3.76084 57.2976 3.23438 56.8046 3.23438 56.1954Z" fill="#4C4A45"/>
<path d="M0 56.1955C0 55.7904 0.351222 55.4614 0.784956 55.4614H4.07082C4.50455 55.4614 4.8565 55.7904 4.8565 56.1955C4.8565 56.6028 4.50455 56.931 4.07082 56.931H0.784956C0.351222 56.931 0 56.6028 0 56.1955Z" fill="#121212"/>
<path d="M3.23438 51.4852C3.23438 50.8768 3.76157 50.383 4.41144 50.383C5.06131 50.383 5.58997 50.8768 5.58997 51.4852C5.58997 52.0937 5.06204 52.5874 4.41144 52.5874C3.76084 52.5874 3.23438 52.0944 3.23438 51.4852Z" fill="#4C4A45"/>
<path d="M0 51.4856C0 51.0797 0.351222 50.75 0.784956 50.75H4.07082C4.50455 50.75 4.8565 51.0797 4.8565 51.4856C4.8565 51.8915 4.50455 52.2204 4.07082 52.2204H0.784956C0.351222 52.2204 0 51.8915 0 51.4856Z" fill="#121212"/>
<path d="M3.23438 46.7756C3.23438 46.1671 3.76157 45.6734 4.41144 45.6734C5.06131 45.6734 5.58997 46.1671 5.58997 46.7756C5.58997 47.384 5.06204 47.8777 4.41144 47.8777C3.76084 47.8777 3.23438 47.3847 3.23438 46.7756Z" fill="#4C4A45"/>
<path d="M0 46.7754C0 46.3703 0.351222 46.0406 0.784956 46.0406H4.07082C4.50455 46.0406 4.8565 46.3703 4.8565 46.7754C4.8565 47.1813 4.50455 47.5102 4.07082 47.5102H0.784956C0.351222 47.5102 0 47.1813 0 46.7754Z" fill="#121212"/>
<path d="M3.23438 42.0656C3.23438 41.4572 3.76157 40.9634 4.41144 40.9634C5.06131 40.9634 5.58997 41.4572 5.58997 42.0656C5.58997 42.6741 5.06204 43.1685 4.41144 43.1685C3.76084 43.1685 3.23438 42.6748 3.23438 42.0656Z" fill="#4C4A45"/>
<path d="M0 42.0657C0 41.6599 0.351222 41.3309 0.784956 41.3309H4.07082C4.50455 41.3309 4.8565 41.6599 4.8565 42.0657C4.8565 42.4723 4.50455 42.8005 4.07082 42.8005H0.784956C0.351222 42.8005 0 42.4723 0 42.0657Z" fill="#121212"/>
<path d="M3.23438 37.3562C3.23438 36.747 3.76157 36.2533 4.41144 36.2533C5.06131 36.2533 5.58997 36.747 5.58997 37.3562C5.58997 37.9654 5.06204 38.4584 4.41144 38.4584C3.76084 38.4584 3.23438 37.9654 3.23438 37.3562Z" fill="#4C4A45"/>
<path d="M0 37.3563C0 36.9497 0.351222 36.6208 0.784956 36.6208H4.07082C4.50455 36.6208 4.8565 36.9497 4.8565 37.3563C4.8565 37.7622 4.50455 38.0904 4.07082 38.0904H0.784956C0.351222 38.0904 0 37.7622 0 37.3563Z" fill="#121212"/>
<path d="M3.23438 32.646C3.23438 32.0376 3.76157 31.5438 4.41144 31.5438C5.06131 31.5438 5.58997 32.0376 5.58997 32.646C5.58997 33.2545 5.06204 33.7482 4.41144 33.7482C3.76084 33.7482 3.23438 33.2545 3.23438 32.646Z" fill="#4C4A45"/>
<path d="M0 32.6464C0 32.2405 0.351222 31.9116 0.784956 31.9116H4.07082C4.50455 31.9116 4.8565 32.2405 4.8565 32.6464C4.8565 33.0515 4.50455 33.3812 4.07082 33.3812H0.784956C0.351222 33.3812 0 33.0515 0 32.6464Z" fill="#121212"/>
<path d="M3.23438 27.9349C3.23438 27.3264 3.76157 26.8327 4.41144 26.8327C5.06131 26.8327 5.58997 27.3264 5.58997 27.9349C5.58997 28.5434 5.06204 29.0385 4.41144 29.0385C3.76084 29.0385 3.23438 28.5441 3.23438 27.9349Z" fill="#4C4A45"/>
<path d="M0 27.935C0 27.5291 0.351222 27.2009 0.784956 27.2009H4.07082C4.50455 27.2009 4.8565 27.5291 4.8565 27.935C4.8565 28.3423 4.50455 28.6705 4.07082 28.6705H0.784956C0.351222 28.6705 0 28.3423 0 27.935Z" fill="#121212"/>
<path d="M3.23438 23.2257C3.23438 22.6165 3.76157 22.1235 4.41144 22.1235C5.06131 22.1235 5.58997 22.6165 5.58997 23.2257C5.58997 23.8349 5.06204 24.3279 4.41144 24.3279C3.76084 24.3279 3.23438 23.8341 3.23438 23.2257Z" fill="#4C4A45"/>
<path d="M0 23.2258C0 22.8192 0.351222 22.491 0.784956 22.491H4.07082C4.50455 22.491 4.8565 22.8192 4.8565 23.2258C4.8565 23.6316 4.50455 23.9598 4.07082 23.9598H0.784956C0.351222 23.9598 0 23.6316 0 23.2258Z" fill="#121212"/>
<path d="M3.23438 18.5162C3.23438 17.9063 3.76157 17.4133 4.41144 17.4133C5.06131 17.4133 5.58997 17.9063 5.58997 18.5162C5.58997 19.1261 5.06204 19.6177 4.41144 19.6177C3.76084 19.6177 3.23438 19.124 3.23438 18.5162Z" fill="#4C4A45"/>
<path d="M0 18.5163C0 18.1097 0.351222 17.7808 0.784956 17.7808H4.07082C4.50455 17.7808 4.8565 18.1097 4.8565 18.5163C4.8565 18.9215 4.50455 19.2511 4.07082 19.2511H0.784956C0.351222 19.2511 0 18.9215 0 18.5163Z" fill="#121212"/>
<path d="M3.23438 13.8056C3.23438 13.1964 3.76157 12.7034 4.41144 12.7034C5.06131 12.7034 5.58997 13.1964 5.58997 13.8056C5.58997 14.4148 5.06204 14.9085 4.41144 14.9085C3.76084 14.9085 3.23438 14.414 3.23438 13.8056Z" fill="#4C4A45"/>
<path d="M0 13.8057C0 13.3998 0.351222 13.0709 0.784956 13.0709H4.07082C4.50455 13.0709 4.8565 13.3998 4.8565 13.8057C4.8565 14.2123 4.50455 14.5405 4.07082 14.5405H0.784956C0.351222 14.5405 0 14.2123 0 13.8057Z" fill="#121212"/>
<path d="M3.23438 9.0959C3.23438 8.48744 3.76157 7.99371 4.41144 7.99371C5.06131 7.99371 5.58997 8.48744 5.58997 9.0959C5.58997 9.70435 5.06204 10.1988 4.41144 10.1988C3.76084 10.1988 3.23438 9.70508 3.23438 9.0959Z" fill="#4C4A45"/>
<path d="M0 9.09504C0 8.68843 0.351222 8.36024 0.784956 8.36024H4.07082C4.50455 8.36024 4.8565 8.68843 4.8565 9.09504C4.8565 9.50092 4.50455 9.82983 4.07082 9.82983H0.784956C0.351222 9.82983 0 9.50092 0 9.09504Z" fill="#121212"/>
<path d="M3.23438 4.38574C3.23438 3.77656 3.76157 3.28282 4.41144 3.28282C5.06131 3.28282 5.58997 3.77656 5.58997 4.38574C5.58997 4.99493 5.06204 5.48721 4.41144 5.48721C3.76084 5.48721 3.23438 4.99565 3.23438 4.38574Z" fill="#4C4A45"/>
<path d="M0 4.38584C0 3.97996 0.351222 3.65104 0.784956 3.65104H4.07082C4.50455 3.65104 4.8565 3.97996 4.8565 4.38584C4.8565 4.79099 4.50455 5.12064 4.07082 5.12064H0.784956C0.351222 5.12064 0 4.79099 0 4.38584Z" fill="#121212"/>
</svg>
