<svg width="40" height="40" viewBox="0 0 40 40" fill="none" xmlns="http://www.w3.org/2000/svg">
<circle cx="20" cy="20" r="20" fill="white"/>
<path d="M19.9809 7.5C23.8169 7.5 26.9034 10.5185 26.9034 14.245V16.1617C29.0563 16.8337 30.625 18.7827 30.625 21.1105V27.2816C30.625 30.1635 28.2358 32.5 25.2903 32.5H14.711C11.7642 32.5 9.375 30.1635 9.375 27.2816V21.1105C9.375 18.7827 10.9449 16.8337 13.0966 16.1617V14.245C13.1093 10.5185 16.1958 7.5 19.9809 7.5ZM19.9936 21.7303C19.384 21.7303 18.8886 22.2148 18.8886 22.811V25.5687C18.8886 26.1773 19.384 26.6618 19.9936 26.6618C20.616 26.6618 21.1114 26.1773 21.1114 25.5687V22.811C21.1114 22.2148 20.616 21.7303 19.9936 21.7303ZM20.0064 9.6738C17.4279 9.6738 15.3321 11.711 15.3194 14.2202V15.8921H24.6806V14.245C24.6806 11.7234 22.5848 9.6738 20.0064 9.6738Z" fill="#2851E7"/>
</svg>
