<svg width="60" height="60" viewBox="0 0 60 60" fill="none" xmlns="http://www.w3.org/2000/svg">
<g style="mix-blend-mode:multiply">
<path d="M9.05123 56.8847C10.0689 58.1313 11.7411 58.9825 13.6576 59.0999V59.1134H53.2424V56.9055C53.2424 56.8189 53.2471 56.731 53.2525 56.6451H53.2424V3.45534C53.2426 3.26602 53.2054 3.07852 53.1331 2.90354C53.0608 2.72857 52.9548 2.56956 52.821 2.4356C52.6872 2.30163 52.5283 2.19534 52.3535 2.12279C52.1786 2.05023 51.9911 2.01284 51.8018 2.01276H9.4493C9.06658 2.01276 8.69951 2.1647 8.42876 2.4352C8.15801 2.7057 8.00573 3.07262 8.00537 3.45534V54.0606C8.00537 55.1058 8.38867 56.0805 9.04519 56.886L9.05123 56.8847Z" fill="#EBEBEB"/>
</g>
<path d="M51.237 1.44606V54.8754H7.03982C6.3833 54.0699 6 53.0945 6 52.0493V1.44606C6.00018 1.06334 6.15229 0.696348 6.42292 0.425724C6.69354 0.155099 7.06054 0.0029855 7.44326 0.00280762H49.7958C50.1783 0.00316354 50.5449 0.155398 50.8152 0.426042C51.0855 0.696686 51.2372 1.06358 51.237 1.44606Z" fill="#EB5837"/>
<g style="mix-blend-mode:multiply" opacity="0.2">
<path d="M45.7533 45.0484C42.9239 44.9934 40.0911 44.9141 37.2609 44.9551C34.4308 44.996 31.6 45.1921 28.7659 45.2666C26.4936 45.3243 24.2132 45.3196 21.9517 45.0652C20.3339 44.8866 18.7208 44.6691 17.0963 44.557C15.3469 44.4369 13.5445 44.3832 11.8153 44.7201C10.364 45.0027 8.87644 45.5801 8.07762 46.9031C8.06749 46.9194 8.05237 46.9319 8.03453 46.9389C8.01669 46.9458 7.99708 46.9468 7.97864 46.9416C7.9602 46.9365 7.94392 46.9255 7.93223 46.9103C7.92055 46.8952 7.91409 46.8766 7.91382 46.8575C8.01049 41.545 8.26289 36.2365 8.35217 30.9233C8.44951 25.11 8.50992 19.2967 8.6274 13.4847C8.71869 8.99048 8.80394 4.49558 8.83885 0H7.44326C7.06054 0.000177886 6.69354 0.152292 6.42292 0.422916C6.15229 0.693541 6.00018 1.06054 6 1.44326V52.0465C6 53.0917 6.3833 54.0664 7.03982 54.8726H51.237V45.1209C49.4085 45.1162 47.5799 45.0833 45.7533 45.0484Z" fill="#EB5837"/>
</g>
<path d="M51.237 46.9788V57.1044H11.6515V57.0903C9.73233 56.9721 8.05681 56.1183 7.03982 54.8683C6.3833 54.0628 6 53.0881 6 52.0422C6 49.3732 8.4918 47.1869 11.6515 46.9942V46.9788H51.237Z" fill="#CE4F30"/>
<path d="M33.8686 2.10297C33.8686 2.10297 34.2243 2.07411 34.8459 2.03584C35.4676 1.99758 36.357 1.94589 37.423 1.90763C38.489 1.86937 39.7336 1.8264 41.0667 1.8009C41.7333 1.7915 42.422 1.77203 43.1208 1.77002L45.2428 1.75458L46.3081 1.75861C46.7043 1.75596 47.0978 1.82416 47.4701 1.95999C47.8462 2.09296 48.1896 2.30491 48.477 2.5816C48.771 2.85548 48.963 3.20522 49.1147 3.54891C49.3886 4.24772 49.3638 4.98949 49.3423 5.57417C49.3235 6.18571 49.3054 6.76301 49.2886 7.29601C49.2537 8.36201 49.1966 9.25078 49.1698 9.87306C49.1429 10.4953 49.1073 10.8504 49.1073 10.8504C49.1055 10.8696 49.0967 10.8874 49.0825 10.9003C49.0682 10.9133 49.0497 10.9205 49.0305 10.9205C49.0112 10.9205 48.9927 10.9133 48.9785 10.9003C48.9643 10.8874 48.9554 10.8696 48.9536 10.8504C48.9536 10.8504 48.9261 10.4947 48.8919 9.87306C48.8576 9.25146 48.8079 8.36201 48.773 7.29601C48.7563 6.76301 48.7381 6.18571 48.7193 5.57417C48.7153 5.42179 48.7119 5.26673 48.7079 5.11032C48.7039 4.95391 48.6844 4.8163 48.673 4.6666C48.6616 4.5169 48.618 4.37862 48.5965 4.23228C48.5595 4.09073 48.5146 3.95134 48.4622 3.81474C48.3347 3.55697 48.1937 3.30255 47.9709 3.11325C47.7499 2.91739 47.493 2.76645 47.2143 2.66886C46.9225 2.56516 46.6144 2.51512 46.3047 2.52118L45.2394 2.52521L43.1208 2.50574C42.422 2.50574 41.7333 2.48359 41.0667 2.47419C39.7336 2.44935 38.4897 2.41176 37.423 2.36813C36.3563 2.3245 35.4682 2.26878 34.8459 2.23991C34.2237 2.21105 33.8686 2.17279 33.8686 2.17279C33.8635 2.17236 33.8586 2.17095 33.8541 2.16863C33.8497 2.1663 33.8457 2.16311 33.8424 2.15925C33.8392 2.15538 33.8367 2.1509 33.8352 2.14608C33.8337 2.14127 33.8332 2.1362 33.8337 2.13117C33.8359 2.12349 33.8405 2.11668 33.8467 2.11165C33.853 2.10662 33.8606 2.10359 33.8686 2.10297Z" fill="white"/>
<path d="M51.2354 47.8615V56.4579H12.6548V56.4431C10.9095 56.3498 9.37026 55.7141 8.36669 54.7649C8.33447 54.7367 8.30426 54.7065 8.27473 54.677C7.92504 54.3335 7.64072 53.9293 7.43562 53.4841C7.42153 53.4546 7.40877 53.4257 7.39736 53.3962C7.23774 53.018 7.15271 52.6124 7.14697 52.202V52.1134C7.15285 51.7033 7.23787 51.2983 7.39736 50.9205C7.40877 50.8916 7.42153 50.8607 7.43562 50.8332C7.64 50.388 7.9239 49.9837 8.27338 49.6403C8.30292 49.6108 8.33447 49.5826 8.36468 49.5524C9.36825 48.6046 10.9068 47.9662 12.6548 47.8742V47.8621L51.2354 47.8615Z" fill="#E6E0D2"/>
<path d="M51.237 49.5547V49.6426H8.2749C8.30444 49.6131 8.33599 49.5849 8.3662 49.5547H51.237Z" fill="#E3CAC6"/>
<path d="M51.2366 50.8384V50.9256H7.40186C7.41327 50.8968 7.42602 50.8659 7.44012 50.8384H51.2366Z" fill="#E3CAC6"/>
<path d="M51.2354 52.1146H7.14697V52.2032H51.2354V52.1146Z" fill="#E3CAC6"/>
<path d="M51.2399 53.3975V53.4854H7.44012C7.42602 53.4559 7.41327 53.427 7.40186 53.3975H51.2399Z" fill="#E3CAC6"/>
<path d="M51.2356 54.6774V54.7654H8.36687C8.33465 54.7372 8.30444 54.707 8.2749 54.6774H51.2356Z" fill="#E3CAC6"/>
<g style="mix-blend-mode:multiply" opacity="0.4">
<path d="M45.3866 55.2211C45.2704 55.2305 45.1543 55.2379 45.0375 55.2433C42.8377 55.3601 40.6352 55.2285 38.4341 55.2185C34.489 55.2003 30.5559 55.5809 26.6121 55.6105C23.9062 55.6306 21.2009 55.4225 18.4963 55.5434C16.5006 55.63 14.4015 55.7447 12.4588 55.1775C11.4338 54.8788 10.3919 54.2323 9.70993 53.3973C8.62379 52.0661 9.37429 50.4832 10.7303 49.7126C11.5358 49.2561 12.538 49.0279 13.453 48.9567C17.1981 48.6667 21.0385 49.0078 24.7977 48.995C28.724 48.9802 32.6517 48.9279 36.5746 48.8782C38.7165 48.8527 40.8592 48.833 43.0028 48.8191C45.5255 48.8057 48.0489 48.8144 50.5709 48.8936C50.7938 48.8994 51.017 48.8906 51.2388 48.8675V47.8605H12.6548V47.8726C10.9095 47.9666 9.36556 48.605 8.36468 49.5508C8.33447 49.581 8.30292 49.6092 8.27338 49.6388C7.9233 49.9839 7.63937 50.3903 7.43562 50.8377C7.42153 50.8652 7.40877 50.8961 7.39736 50.9249C7.23846 51.3013 7.15346 51.7047 7.14697 52.1131V52.201C7.15271 52.6115 7.23774 53.017 7.39736 53.3953C7.40877 53.4248 7.42153 53.4537 7.43562 53.4832C7.64072 53.9284 7.92504 54.3326 8.27473 54.6761C8.30426 54.7056 8.33447 54.7358 8.36669 54.764C9.37026 55.7125 10.9082 56.3482 12.6548 56.4422V56.457C15.5857 56.4708 18.5169 56.4858 21.4486 56.5019L39.1456 56.5932L50.1097 56.649L51.2381 56.6543C51.2381 55.9891 51.2066 55.2983 51.2482 54.6344C49.2793 54.6036 47.3433 55.0761 45.3866 55.2211Z" fill="#E6E0D2"/>
</g>
</svg>
