<svg width="30" height="30" viewBox="0 0 30 30" fill="none" xmlns="http://www.w3.org/2000/svg">
<g clip-path="url(#clip0_328_2562)">
<path d="M15.0203 29.9997C23.2726 29.9997 29.9625 23.2841 29.9625 14.9999C29.9625 6.71567 23.2726 0 15.0203 0C6.76796 0 0.078125 6.71567 0.078125 14.9999C0.078125 23.2841 6.76796 29.9997 15.0203 29.9997Z" fill="#55ACEE"/>
<path d="M24.1723 10.7801C23.532 11.0651 22.8432 11.2579 22.1208 11.344C22.8584 10.9004 23.4244 10.1985 23.6915 9.36079C23.0014 9.77177 22.2367 10.0699 21.4235 10.2306C20.772 9.53406 19.8437 9.09875 18.8159 9.09875C16.8437 9.09875 15.2443 10.7044 15.2443 12.6841C15.2443 12.9652 15.276 13.2387 15.3372 13.5013C12.3689 13.3518 9.73703 11.9245 7.97534 9.75465C7.66796 10.2841 7.49163 10.9004 7.49163 11.5574C7.49163 12.801 8.12263 13.8989 9.08046 14.5417C8.49527 14.5232 7.94417 14.362 7.46286 14.0927C7.4626 14.108 7.4626 14.1232 7.4626 14.1382C7.4626 15.8754 8.69424 17.3244 10.3278 17.6535C10.0284 17.7359 9.71226 17.7795 9.38703 17.7795C9.15637 17.7795 8.93289 17.7573 8.71501 17.7156C9.16942 19.1397 10.4882 20.1763 12.0514 20.2055C10.8288 21.1673 9.28901 21.7403 7.61522 21.7403C7.32755 21.7403 7.04255 21.7234 6.76367 21.69C8.34344 22.7077 10.2213 23.301 12.2381 23.301C18.8076 23.301 22.4002 17.8378 22.4002 13.0994C22.4002 12.944 22.3968 12.7892 22.3898 12.6357C23.0882 12.1304 23.6937 11.4991 24.1723 10.7801Z" fill="#F1F2F2"/>
</g>
<defs>
<clipPath id="clip0_328_2562">
<rect width="29.8846" height="30" fill="white" transform="translate(0.0761719)"/>
</clipPath>
</defs>
</svg>
