<svg width="16" height="16" viewBox="0 0 16 16" fill="none" xmlns="http://www.w3.org/2000/svg">
<path d="M7.98447 1.3335C9.56288 1.3335 10.9577 2.30822 11.4725 3.75208C11.5267 3.89785 11.5132 4.05688 11.4454 4.19603C11.3777 4.33519 11.2564 4.44121 11.1067 4.48825C10.8019 4.59361 10.4632 4.43524 10.348 4.13043C10.0025 3.14909 9.05481 2.49309 7.99802 2.49309C6.61539 2.49309 5.49832 3.58046 5.49087 4.91167V5.80621L5.48274 5.80754H10.8195C12.3911 5.80754 13.6654 7.05394 13.6654 8.59122V11.8831C13.6654 13.4204 12.3911 14.6668 10.8195 14.6668H5.17722C3.60627 14.6668 2.33203 13.4204 2.33203 11.8831V8.59122C2.33203 7.32694 3.19914 6.27138 4.37921 5.93211L4.30537 5.94073V4.92492C4.31892 2.94434 5.96574 1.3335 7.98447 1.3335ZM7.99531 8.92187C7.67015 8.92187 7.40595 9.1803 7.40595 9.49836V10.9694C7.40595 11.2941 7.67015 11.5525 7.99531 11.5525C8.32725 11.5525 8.59145 11.2941 8.59145 10.9694V9.49836C8.59145 9.1803 8.32725 8.92187 7.99531 8.92187Z" fill="black"/>
</svg>
