<svg width="24" height="24" viewBox="0 0 24 24" fill="none" xmlns="http://www.w3.org/2000/svg">
<circle cx="12" cy="12" r="12" fill="#2851E7"/>
<path d="M16.1529 11.2008C16.1129 11.1597 15.962 10.9843 15.8215 10.84C14.9974 9.93254 12.8475 8.44718 11.7223 7.99379C11.5514 7.92093 11.1193 7.76674 10.8885 7.75684C10.6673 7.75684 10.4565 7.80776 10.2553 7.91103C10.0045 8.05532 9.80325 8.28237 9.693 8.55045C9.62203 8.73647 9.51178 9.29313 9.51178 9.30303C9.40153 9.91203 9.34089 10.9016 9.34089 11.9951C9.34089 13.037 9.40153 13.9862 9.4918 14.6044C9.50213 14.6143 9.61238 15.306 9.73297 15.543C9.95415 15.9759 10.3862 16.2446 10.8485 16.2446H10.8885C11.1896 16.234 11.8229 15.9653 11.8229 15.9553C12.8875 15.5013 14.9877 14.0887 15.8318 13.1501C15.8318 13.1501 16.0695 12.9089 16.1729 12.7583C16.3341 12.5418 16.4141 12.2738 16.4141 12.0057C16.4141 11.7065 16.3238 11.4278 16.1529 11.2008Z" fill="white"/>
</svg>
