<svg width="32" height="32" viewBox="0 0 32 32" fill="none" xmlns="http://www.w3.org/2000/svg">
<circle cx="16" cy="16" r="16" fill="#2851E7"/>
<path d="M15.9848 6C19.0535 6 21.5227 8.41479 21.5227 11.396V12.9293C23.2451 13.467 24.5 15.0261 24.5 16.8884V21.8253C24.5 24.1308 22.5886 26 20.2322 26H11.7688C9.41136 26 7.5 24.1308 7.5 21.8253V16.8884C7.5 15.0261 8.75595 13.467 10.4773 12.9293V11.396C10.4874 8.41479 12.9567 6 15.9848 6ZM15.9949 17.3843C15.5072 17.3843 15.1109 17.7718 15.1109 18.2488V20.4549C15.1109 20.9419 15.5072 21.3294 15.9949 21.3294C16.4928 21.3294 16.8891 20.9419 16.8891 20.4549V18.2488C16.8891 17.7718 16.4928 17.3843 15.9949 17.3843ZM16.0051 7.73904C13.9423 7.73904 12.2657 9.36878 12.2555 11.3761V12.7137H19.7445V11.396C19.7445 9.37871 18.0678 7.73904 16.0051 7.73904Z" fill="white"/>
</svg>
