<svg width="20" height="20" viewBox="0 0 20 20" fill="none" xmlns="http://www.w3.org/2000/svg">
<path d="M12.8102 4.35985L11.0402 6.13985C10.3618 5.95781 9.64744 5.95762 8.96894 6.13929C8.29045 6.32096 7.67176 6.67809 7.1751 7.17475C6.67843 7.67142 6.3213 8.29011 6.13963 8.9686C5.95796 9.64709 5.95816 10.3615 6.14019 11.0398L3.38019 13.7898C2.06019 12.7898 0.960195 11.4898 0.200195 9.99985C1.34111 7.76269 3.21318 5.98326 5.50532 4.95726C7.79746 3.93125 10.3717 3.72044 12.8002 4.35985H12.8102ZM16.6102 6.20985C17.9402 7.20985 19.0402 8.50985 19.8102 9.99985C18.6685 12.2411 16.7932 14.0235 14.4968 15.0498C12.2003 16.076 9.62155 16.2843 7.19019 15.6399L8.96019 13.8598C9.63859 14.0419 10.353 14.0421 11.0314 13.8604C11.7099 13.6787 12.3286 13.3216 12.8253 12.8249C13.322 12.3283 13.6791 11.7096 13.8608 11.0311C14.0424 10.3526 14.0422 9.63824 13.8602 8.95985L16.6202 6.20985H16.6102ZM16.3602 2.21985L17.7802 3.63985L3.64019 17.7799L2.22019 16.3599L16.3602 2.21985Z" fill="#808080"/>
</svg>
