<svg width="581" height="468" viewBox="0 0 581 468" fill="none" xmlns="http://www.w3.org/2000/svg">
<g clip-path="url(#clip0_47_2011)">
<path d="M492.239 190.789C464.608 81.8722 369.136 3.24946 257.072 0.095976C197.827 -1.57117 135.485 18.126 90.0949 87.0536C8.95601 210.269 95.0811 295.415 155.125 335.874C184.134 355.461 210.272 379.011 232.783 405.845C273.341 454.091 351.365 514.045 444.288 420.107C511.639 352.021 510.643 263.338 492.239 190.789Z" fill="#121212" fill-opacity="0.05"/>
<path d="M434.925 224.061C434.925 224.061 454.231 223.778 450.118 229.598C446.005 235.418 430.047 235.011 430.047 235.011L434.925 224.061Z" fill="#FFB9B9"/>
<path d="M375.541 152.296L395.079 178.888L411.971 199.119C411.971 199.119 429.474 217.421 431.426 219.952C433.378 222.484 439.112 221.76 437.892 225.617C436.671 229.475 434.85 235.901 432.944 236.569C431.039 237.237 422.085 236.088 421.428 234.817C420.771 233.547 378.932 209.841 364.001 192.781L349.791 183.113L349.578 166.755L375.541 152.296Z" fill="white"/>
<path d="M375.541 152.296L395.079 178.888L411.971 199.119C411.971 199.119 429.474 217.421 431.426 219.952C433.378 222.484 439.112 221.76 437.892 225.617C436.671 229.475 434.85 235.901 432.944 236.569C431.039 237.237 422.085 236.088 421.428 234.817C420.771 233.547 378.932 209.841 364.001 192.781L349.791 183.113L349.578 166.755L375.541 152.296Z" fill="#FF6584"/>
<path opacity="0.1" d="M375.541 152.296L395.079 178.888L411.971 199.119C411.971 199.119 429.474 217.421 431.426 219.952C433.378 222.484 439.112 221.76 437.892 225.617C436.671 229.475 434.85 235.901 432.944 236.569C431.039 237.237 422.085 236.088 421.428 234.817C420.771 233.547 378.932 209.841 364.001 192.781L349.791 183.113L349.578 166.755L375.541 152.296Z" fill="#121212"/>
<path d="M383.619 139.955L387.681 149.553H391.279L386.173 125.238C386.173 109.631 378.658 96.4434 363.089 96.4434H363.089C357.869 96.4434 352.863 98.5222 349.171 102.223C345.48 105.923 343.406 110.942 343.406 116.175V140.021C343.406 142.549 344.408 144.974 346.191 146.761C347.974 148.549 350.392 149.553 352.914 149.553H380.827L383.619 139.955Z" fill="#2F2E41"/>
<path d="M317.556 385.346C317.556 385.346 311.811 393.024 311.811 394.944C311.811 396.863 308.619 397.503 306.704 399.423C304.789 401.342 302.875 400.703 304.151 402.622C305.428 404.542 288.194 416.06 288.194 416.06L271.598 437.815L276.066 441.654L288.832 428.217L286.917 451.892L304.789 468.529C304.789 468.529 312.449 469.809 313.087 468.529C313.726 467.249 306.704 454.452 306.704 454.452C306.704 454.452 307.343 442.934 311.172 438.455C313.548 435.654 315.683 432.658 317.556 429.497C317.556 429.497 315.641 426.937 320.109 426.297C324.577 425.658 321.385 421.818 321.385 421.818C321.385 421.818 322.662 421.179 326.492 421.179C330.322 421.179 347.556 402.622 347.556 402.622L317.556 385.346Z" fill="#2F2E41"/>
<path d="M389.046 405.182C389.046 405.182 386.493 414.14 390.961 419.259C395.429 424.378 390.961 423.098 390.961 423.098C390.961 423.098 391.6 426.937 389.046 428.857C386.493 430.776 386.493 434.616 386.493 434.616C386.493 434.616 383.302 441.014 383.94 444.854C384.578 448.693 384.578 467.889 384.578 467.889H390.961V451.252L403.727 467.889H435.642C435.642 467.889 435.004 464.69 431.813 464.05C428.621 463.41 419.047 464.05 417.132 450.612C417.132 450.612 416.493 442.934 415.217 441.654C413.94 440.374 412.664 435.895 413.94 432.696C415.217 429.497 413.94 428.217 415.855 426.937C417.77 425.657 418.408 421.818 417.132 419.899C415.855 417.979 412.025 414.78 416.493 412.86C420.961 410.94 420.961 401.342 420.961 401.342L389.046 405.182Z" fill="#2F2E41"/>
<path d="M346.919 251.612C346.919 251.612 339.897 257.371 348.834 281.046C357.77 304.722 361.6 335.436 361.6 335.436C361.6 335.436 352.663 343.114 352.663 346.953C352.663 350.793 313.089 375.108 315.642 385.986C318.195 396.863 364.791 417.339 369.259 416.059C373.727 414.78 395.43 353.352 395.43 353.352C395.43 353.352 387.132 285.526 386.494 284.886C385.855 284.246 366.706 252.892 366.706 252.892L355.217 229.217L346.919 251.612Z" fill="#2F2E41"/>
<path opacity="0.1" d="M346.919 251.612C346.919 251.612 339.897 257.371 348.834 281.046C357.77 304.722 361.6 335.436 361.6 335.436C361.6 335.436 352.663 343.114 352.663 346.953C352.663 350.793 313.089 375.108 315.642 385.986C318.195 396.863 364.791 417.339 369.259 416.059C373.727 414.78 395.43 353.352 395.43 353.352C395.43 353.352 387.132 285.526 386.494 284.886C385.855 284.246 366.706 252.892 366.706 252.892L355.217 229.217L346.919 251.612Z" fill="#121212"/>
<path d="M346.278 236.895C346.278 236.895 341.172 255.452 353.299 274.648C365.427 293.844 379.47 333.516 379.47 333.516C379.47 333.516 392.874 375.108 387.13 405.182C387.13 405.182 385.215 409.021 390.321 409.021C395.427 409.021 449.045 407.741 444.577 394.304C440.109 380.866 420.321 318.159 420.321 318.159L394.789 254.812L393.513 235.615L383.938 220.898H364.151L346.278 236.895Z" fill="#2F2E41"/>
<path d="M256.985 256.091C256.985 256.091 237.677 256.091 241.874 261.85C246.072 267.609 262.022 266.969 262.022 266.969L256.985 256.091Z" fill="#FFB9B9"/>
<path d="M358.087 123.958C358.087 123.958 359.364 132.916 354.896 134.196C350.427 135.476 372.768 145.074 372.768 145.074C372.768 145.074 377.236 129.717 379.151 127.797C381.066 125.878 358.087 123.958 358.087 123.958Z" fill="#FFB9B9"/>
<path opacity="0.1" d="M358.087 123.958C358.087 123.958 359.364 132.916 354.896 134.196C350.427 135.476 372.768 145.074 372.768 145.074C372.768 145.074 377.236 129.717 379.151 127.797C381.066 125.878 358.087 123.958 358.087 123.958Z" fill="#121212"/>
<path d="M375.959 138.675C375.959 138.675 356.172 132.916 355.534 130.996C354.895 129.077 350.427 133.556 348.512 136.755C346.597 139.955 342.767 143.794 340.853 143.794C338.938 143.794 324.895 152.112 321.703 166.829C320.242 173.566 318.113 177.487 316.232 179.759C314.819 181.614 313.96 183.833 313.754 186.159C313.745 186.266 313.708 186.369 313.647 186.458C313.585 186.547 313.502 186.618 313.406 186.665C312.129 187.305 340.214 214.18 340.214 214.18C340.214 214.18 351.065 211.62 352.98 214.18C354.895 216.739 351.704 221.218 349.789 223.778C347.874 226.337 343.406 239.135 345.959 241.054C348.512 242.974 361.917 223.778 369.576 227.617C377.236 231.456 384.896 228.257 384.896 228.257C384.896 228.257 388.087 238.495 393.193 238.495C398.3 238.495 399.576 230.176 397.662 227.617C395.747 225.057 388.087 219.939 391.917 212.9C395.747 205.861 397.023 193.064 397.023 193.064C397.023 193.064 407.236 180.906 388.725 166.189C388.725 166.189 382.342 148.273 380.427 146.993C378.512 145.713 375.321 145.073 375.321 143.794C375.321 142.514 375.959 138.675 375.959 138.675Z" fill="#FF6584"/>
<path d="M315.324 183.466L296.175 210.34L279.579 230.816C279.579 230.816 262.344 249.373 260.43 251.932C258.515 254.492 252.77 253.852 254.047 257.691C255.323 261.53 257.238 267.929 259.153 268.569C261.068 269.209 270.004 267.929 270.642 266.649C271.281 265.369 312.77 241.054 327.451 223.778L341.519 213.903L341.494 197.543L315.324 183.466Z" fill="#FF6584"/>
<path d="M353.998 214.869L390.998 216.052C391.416 216.065 391.812 216.24 392.103 216.541C392.394 216.841 392.557 217.243 392.557 217.662V218.254C392.557 218.472 392.513 218.687 392.428 218.887C392.342 219.087 392.217 219.268 392.061 219.418C391.904 219.568 391.718 219.685 391.515 219.762C391.312 219.838 391.095 219.873 390.878 219.863L353.878 218.088C353.465 218.069 353.075 217.891 352.789 217.592C352.503 217.292 352.344 216.893 352.344 216.479C352.344 216.263 352.387 216.05 352.471 215.851C352.554 215.653 352.677 215.473 352.831 215.323C352.986 215.173 353.168 215.055 353.369 214.977C353.569 214.899 353.783 214.862 353.998 214.869Z" fill="#2F2E41"/>
<path d="M391.92 221.858C392.272 221.858 392.558 220.283 392.558 218.339C392.558 216.395 392.272 214.82 391.92 214.82C391.567 214.82 391.281 216.395 391.281 218.339C391.281 220.283 391.567 221.858 391.92 221.858Z" fill="#2F2E41"/>
<path d="M370.853 134.196C380.724 134.196 388.725 126.174 388.725 116.279C388.725 106.384 380.724 98.3628 370.853 98.3628C360.982 98.3628 352.98 106.384 352.98 116.279C352.98 126.174 360.982 134.196 370.853 134.196Z" fill="#FFB9B9"/>
<path d="M378.324 97.2991C374.861 96.4191 366.65 96.4434 365.449 96.4434C362.554 96.4434 359.688 97.0149 357.014 98.1253C354.34 99.2358 351.91 100.863 349.863 102.915C347.816 104.967 346.193 107.403 345.085 110.083C343.977 112.764 343.407 115.637 343.407 118.539L335.109 149.553H351.261L354.258 138.035L358.514 149.553H366.645L367.344 142.632L370.096 149.553H379.152C372.369 134.168 368.761 120.144 377.673 111.488C383.69 112.31 388.766 110.694 389.593 107.424C390.545 103.655 385.5 99.1225 378.324 97.2991Z" fill="#2F2E41"/>
<path d="M20.9984 206.885C19.4266 206.891 17.8809 206.482 16.5171 205.699C15.1533 204.915 14.0195 203.785 13.2299 202.423C12.4403 201.061 12.0229 199.514 12.0196 197.938C12.0162 196.362 12.4272 194.813 13.2111 193.448C24.5729 174.252 59.1051 129.396 134.553 129.396C167.234 129.396 195.894 138.099 219.702 155.247C239.298 169.325 250.277 185.257 255.511 192.936C256.175 193.904 256.64 194.995 256.881 196.145C257.122 197.295 257.132 198.482 256.913 199.636C256.693 200.791 256.247 201.89 255.601 202.87C254.956 203.851 254.122 204.694 253.149 205.349C251.171 206.678 248.751 207.175 246.411 206.732C244.07 206.289 241.998 204.942 240.639 202.982C231.128 189.161 202.277 147.185 134.553 147.185C68.4243 147.185 38.5517 185.833 28.7857 202.406C28.0073 203.784 26.8738 204.926 25.5038 205.714C24.1338 206.502 22.5777 206.907 20.9984 206.885Z" fill="white"/>
<path d="M172.533 382.466C171.781 382.476 171.03 382.39 170.299 382.21C115.597 368.453 95.171 313.04 94.3412 310.736L94.2135 310.224C93.7667 308.625 82.7879 270.616 99.6391 248.349C107.363 238.175 119.107 232.992 134.618 232.992C149.044 232.992 159.448 237.535 166.597 246.941C172.47 254.619 174.831 264.09 177.129 273.24C181.916 292.244 185.363 302.226 205.278 303.25C214.023 303.698 219.768 298.515 223.023 294.1C231.832 282.07 233.364 262.426 226.725 245.149C218.172 222.754 187.916 180.586 134.554 180.586C111.767 180.586 90.8305 188.009 74.0431 201.958C60.1281 213.54 49.0855 229.856 43.7876 246.621C33.9577 277.847 46.8514 326.925 46.9791 327.373C47.2791 328.507 47.3517 329.69 47.1926 330.853C47.0335 332.016 46.6459 333.136 46.0523 334.147C45.4587 335.159 44.6708 336.043 43.7342 336.747C42.7976 337.451 41.731 337.962 40.596 338.251C38.2944 338.86 35.8461 338.537 33.78 337.351C31.7139 336.166 30.1957 334.214 29.5534 331.916C28.9789 329.676 15.1916 277.335 26.5534 241.246C38.9365 202.15 77.107 162.734 134.554 162.734C161.108 162.734 186.193 171.884 207.129 189.161C223.342 202.598 236.619 220.642 243.513 238.687C252.321 261.722 249.96 287.573 237.513 304.465C229.215 315.727 217.406 321.614 204.321 320.974C170.235 319.247 164.108 295.123 159.64 277.527C155.044 259.482 152.108 250.78 134.554 250.78C124.916 250.78 118.15 253.468 113.937 259.035C108.192 266.649 107.746 278.551 108.384 287.189C108.39 287.279 108.397 287.369 108.403 287.459C109.248 298.449 112.567 309.104 118.112 318.622C126.973 333.938 144.947 357.427 174.767 364.933C175.906 365.21 176.979 365.71 177.924 366.404C178.869 367.099 179.667 367.974 180.272 368.979C180.877 369.985 181.278 371.101 181.451 372.262C181.623 373.424 181.565 374.608 181.278 375.747C180.76 377.675 179.622 379.377 178.041 380.592C176.461 381.806 174.525 382.465 172.533 382.466Z" fill="white"/>
<path d="M102.318 378.371C101.09 378.372 99.8734 378.123 98.7434 377.639C97.6134 377.155 96.593 376.446 95.7439 375.556C73.8501 352.264 61.467 326.221 56.8074 293.652V293.46C54.1904 271.896 58.0202 241.374 76.7863 220.387C90.6375 204.902 110.106 197.031 134.553 197.031C163.468 197.031 186.191 210.661 200.362 236.383C206.766 248.213 210.962 261.115 212.745 274.456C212.955 276.822 212.228 279.176 210.721 281.008C209.213 282.841 207.047 284.005 204.689 284.249C202.332 284.493 199.974 283.797 198.125 282.312C196.276 280.826 195.085 278.671 194.809 276.311C193.256 265.157 189.687 254.38 184.277 244.51C173.298 224.866 156.574 214.884 134.489 214.884C115.404 214.884 100.467 220.707 90.1907 232.224C75.382 248.797 72.5097 274.328 74.5522 291.22C78.6374 320.015 89.5524 342.922 108.829 363.398C109.634 364.251 110.261 365.255 110.675 366.354C111.089 367.452 111.28 368.621 111.239 369.795C111.197 370.968 110.923 372.121 110.433 373.187C109.942 374.253 109.245 375.21 108.382 376.004C106.724 377.519 104.563 378.362 102.318 378.371Z" fill="white"/>
<path d="M134.681 294.804C141.026 294.804 146.17 289.647 146.17 283.286C146.17 276.925 141.026 271.768 134.681 271.768C128.335 271.768 123.191 276.925 123.191 283.286C123.191 289.647 128.335 294.804 134.681 294.804Z" fill="white"/>
</g>
<defs>
<clipPath id="clip0_47_2011">
<rect width="581" height="513" fill="white"/>
</clipPath>
</defs>
</svg>
