<svg width="30" height="30" viewBox="0 0 30 30" fill="none" xmlns="http://www.w3.org/2000/svg">
<g clip-path="url(#clip0_328_2572)">
<path d="M15.0576 30.0001C23.31 30.0001 29.9999 23.2843 29.9999 15C29.9999 6.71574 23.31 0 15.0576 0C6.80515 0 0.115234 6.71574 0.115234 15C0.115234 23.2843 6.80515 30.0001 15.0576 30.0001Z" fill="#D42428"/>
<path d="M22.8766 12.1055C22.8766 10.848 21.8618 9.8288 20.6099 9.8288H9.97525C8.72357 9.8288 7.70898 10.8482 7.70898 12.1055V18.2104C7.70898 19.4679 8.72376 20.4871 9.97525 20.4871H20.6097C21.8619 20.4871 22.8764 19.4676 22.8764 18.2104V12.1055H22.8766ZM13.7756 17.7334V11.9994L18.1073 14.8665L13.7756 17.7334Z" fill="white"/>
</g>
<defs>
<clipPath id="clip0_328_2572">
<rect width="29.8846" height="30" fill="white" transform="translate(0.115234)"/>
</clipPath>
</defs>
</svg>
